<svg xmlns="http://www.w3.org/2000/svg" preserveAspectRatio="xMidYMid" width="57" height="46"><path d="M16.747 26.445c0 6.329 5.13 11.459 11.459 11.459s11.46-5.13 11.46-11.459-5.131-11.46-11.46-11.46c-6.329 0-11.459 5.131-11.459 11.46zM52.889 7.052H40.548C39.666 3.526 38.785 0 35.259 0H21.154c-3.526 0-4.407 3.526-5.289 7.052H3.524a3.536 3.536 0 0 0-3.526 3.526v31.734a3.537 3.537 0 0 0 3.526 3.526h49.365a3.537 3.537 0 0 0 3.526-3.526V10.578a3.536 3.536 0 0 0-3.526-3.526zM28.206 42.091c-8.641 0-15.646-7.004-15.646-15.646 0-8.642 7.005-15.647 15.646-15.647 8.642 0 15.647 7.005 15.647 15.647s-7.005 15.646-15.647 15.646zM52.889 17.63h-7.052v-3.526h7.052v3.526z" fill-rule="evenodd"/></svg>