<svg width="164pt" height="26pt" viewBox="0 0 164 26" xmlns="http://www.w3.org/2000/svg"><g fill="#b3b3b3"><path opacity=".7" d="M11.08 0h2.81c4.33.56 8 3.32 10.12 7.08-1.31.95-2.63 1.9-3.95 2.85-1.29-1.95-2.76-4.14-5.27-4.56-4.39-1.36-9.48 2.07-9.67 6.7-.7 4.42 3.14 9.17 7.76 8.67 3.17.27 5.43-2.26 7.13-4.57 1.31.96 2.63 1.92 3.95 2.87-3.05 5.43-9.84 8.28-15.76 6.01C3.46 23.14.46 18.33 0 13.35v-.49C.23 6.65 4.9 1.03 11.08 0zM29.29 0h4.29c.28 3.11.23 6.23.19 9.35 4.27.03 8.53.03 12.8.03.02-3.05.01-6.09.02-9.13 1.64.02 3.29.05 4.93.08-.04 8.35-.03 16.7-.01 25.05-1.64.02-3.29.03-4.93.04-.01-3.65-.01-7.31.05-10.96-4.29-.05-8.58-.06-12.88.03.02 3.63.03 7.27.05 10.91h-4.66c.11-8.47-.14-16.94.15-25.4zM119.68 0h17.54c.03 1.79.06 3.57.08 5.36-4.28.06-8.56.04-12.84.05.02 1.66.04 3.32.07 4.98 3.95-.04 7.89-.05 11.83.04-.02 1.65-.05 3.3-.07 4.95-3.94.04-7.89.03-11.83.04.01 1.66.03 3.33.05 4.99 4.77-.01 9.54-.02 14.31.01-.01 1.66-.02 3.32-.02 4.98-6.39 0-12.78.01-19.16-.01.03-8.46-.04-16.93.04-25.39zM66.06.97c1.93-1.49 4.8-.36 7.12-.71 3.9 8.32 7.44 16.8 11.34 25.11-1.94.02-3.89.03-5.83.05-.78-1.67-1.54-3.34-2.31-5.02-4.32.09-8.65-.18-12.97.12-.99 1.51-1.54 3.25-2.24 4.9l-5.89-.03C58.91 17.26 62.55 9.14 66.06.97m3.39 5.14c-1.32 3.1-2.53 6.25-4.06 9.25 2.98.05 5.97.07 8.95.08-1.37-3.09-2.67-6.21-4.1-9.26-.2-.02-.6-.06-.79-.07zM88.44.26c2.26.01 4.52.02 6.78.04 3.45 4.9 6.97 9.77 10.38 14.7.28-4.87.09-9.74.1-14.61 1.65-.06 3.31-.12 4.97-.16.02 8.39-.01 16.79.02 25.18-.94 0-2.82-.02-3.76-.02-4.59-6.11-8.74-12.56-13.5-18.51-.11 6.16-.02 12.33-.03 18.49-1.66.02-3.32.04-4.98.05.03-8.38.01-16.77.02-25.16zM145.68.38c1.64-.06 3.27-.11 4.91-.16.02 6.72.01 13.44 0 20.16 4.47.04 8.94.01 13.41.05v4.95c-6.1.03-12.2.05-18.31-.01.02-8.33.04-16.66-.01-24.99z"/></g></svg>