<svg xmlns="http://www.w3.org/2000/svg" preserveAspectRatio="xMidYMid" width="31" height="31"><path d="M15 30C6.715 30 0 23.284 0 15 0 6.715 6.715 0 15 0s15 6.715 15 15c0 8.284-6.715 15-15 15zm0-27.657C8.01 2.343 2.344 8.01 2.344 15S8.01 27.656 15 27.656 27.656 21.99 27.656 15 21.99 2.343 15 2.343zM15 22.5a7.5 7.5 0 1 1 0-15 7.5 7.5 0 0 1 0 15zm0-1.649a5.83 5.83 0 0 0 2.077-.383 28.948 28.948 0 0 0-1.155-4.282 7.957 7.957 0 0 0-3.041 1.841 8.566 8.566 0 0 0-1.358 1.67A5.804 5.804 0 0 0 15 20.851zM9.149 15c0 1.435.521 2.744 1.383 3.764.308-.469.833-1.171 1.613-1.882a9.25 9.25 0 0 1 3.294-1.942c-.111-.27-.223-.528-.337-.776-2.08.657-4.134.755-5.311.763-.259 0-.473-.005-.639-.011a1.2 1.2 0 0 0-.003.084zm.174-1.417c.131.003.286.007.468.007h.091c1.077 0 2.855-.123 4.621-.648-.868-1.649-1.682-2.704-2.088-3.184a5.873 5.873 0 0 0-3.092 3.825zM15 9.149c-.428 0-.842.051-1.244.139.508.649 1.25 1.713 2.019 3.2 1.094-.471 2.107-1.135 2.874-2.054A5.812 5.812 0 0 0 15 9.149zm4.595 2.24c-.918 1.049-2.054 1.787-3.236 2.305.131.291.261.595.391.912a9.696 9.696 0 0 1 1.695-.148h.006c.745 0 1.545.088 2.392.267a5.803 5.803 0 0 0-1.248-3.336zm-1.146 4.406h-.001-.001-.015c-.421 0-.82.031-1.2.086.409 1.17.783 2.479 1.079 3.932a5.853 5.853 0 0 0 2.434-3.742 10.397 10.397 0 0 0-2.296-.276z" fill-rule="evenodd" fill="#b2b2b2"/></svg>