<svg xmlns="http://www.w3.org/2000/svg" preserveAspectRatio="xMidYMid" width="31" height="31"><path d="M15.5 31C6.939 31 0 24.061 0 15.5S6.939 0 15.5 0 31 6.939 31 15.5 24.061 31 15.5 31zm0-28.578C8.277 2.422 2.422 8.277 2.422 15.5c0 7.223 5.855 13.078 13.078 13.078 7.223 0 13.078-5.855 13.078-13.078 0-7.223-5.855-13.078-13.078-13.078zm3.678 10.705l-.416 2.736h-2.28v7.387h-2.684v-7.387h-1.976v-2.736h1.976v-2.128c0-1.269.622-3.249 3.345-3.249l1.996.01v2.656h-1.741c-.292 0-.916.14-.916.743v1.968h2.696z" fill-rule="evenodd" fill="#b2b2b2"/></svg>