<svg xmlns="http://www.w3.org/2000/svg" preserveAspectRatio="xMidYMid" width="31" height="31"><path d="M15.416 30.843C6.902 30.843 0 23.942 0 15.427S6.902.01 15.416.01c8.515 0 15.417 6.902 15.417 15.417s-6.902 15.416-15.417 15.416zm0-28.424c-7.184 0-13.007 5.824-13.007 13.008 0 7.184 5.823 13.008 13.007 13.008 7.185 0 13.008-5.824 13.008-13.008 0-7.184-5.823-13.008-13.008-13.008zm5.827 10.115h-.981v-1.901h-1.919v-.985h1.919V7.75h.981v1.898h1.887v.985h-1.887v1.901zm-6.009-4.187s1.364.844 1.364 2.494c0 1.65-.798 2.369-1.804 3.257-1.007.889-.42 1.418 1.153 2.538 1.573 1.12 2.014 3.598-.021 5.396-2.034 1.797-8.223 1.556-8.223-1.779s4.657-3.385 5.036-3.385c.376 0 .44-.106.126-.444-.317-.336-.821-.993-.232-1.712-1.05.043-3.944-.529-3.944-3.194s2.791-3.806 3.795-3.806H17.5s-.23.191-.755.485c-.525.296-1.511.15-1.511.15zM9.485 19.64c0 1.544 1.112 2.58 3.188 2.58 2.074 0 3.295-.697 3.295-2.136 0-1.44-1.372-2.159-2.14-2.751-2.832 0-4.343.762-4.343 2.307zm2.791-11.42c-2.938 0-1.805 5.835.692 5.835 3.314 0 1.594-5.921-.692-5.835z" fill-rule="evenodd" fill="#b2b2b2"/></svg>