<svg width="164pt" height="36" viewBox="0 0 164 27" xmlns="http://www.w3.org/2000/svg"><g fill="#7f7f7f"><path opacity=".5" d="M33.62 3.68c3.08-1.91 6.79-1.8 10.26-2.09.14.48.4 1.43.53 1.91-2.47-.4-5.18-.69-7.42.68-6.31 3.23-6.85 13.06-1.7 17.59 3.17 2.68 7.83 2.53 11.47.94.87-2.48.27-5.15-.04-7.67 1.58-.03 3.16-.07 4.74-.11-.3 1.93-.36 3.88-.77 5.78-5.38 7.13-18.1 5.43-21.87-2.52-2.43-5.12-.25-11.88 4.8-14.51zM74.29 2.41c.76-.02 1.51-.05 2.27-.09-1.93 5.72.25 11.94-1.46 17.69-2.86 7.48-16.04 6.8-17.96-1.03-.68-5.49.12-11.07-.67-16.57 1.04-.01 3.12-.01 4.17-.02-.36 5.4-.47 10.86-.06 16.25 1.17 6.73 12.63 6.17 13.77-.37.65-5.25.16-10.59-.06-15.86zM79.56 12.1c1.05-9.65 14.09-13.18 21.28-7.87 1.37 1.01.86 2.96 1.27 4.38-2.54-3.82-7.09-6.64-11.79-5.15-8.47 2.33-9.29 16.04-1.33 19.55 4.58 2.17 9.68.11 13.19-3.06-.77 4.1-5.71 5.06-9.21 5.29-7.11.44-14.66-5.58-13.41-13.14zM105.45 12.1c1.19-9.88 14.8-13.44 21.85-7.35.31 1.12.56 2.26.74 3.41-3.02-3.1-6.96-6.31-11.63-4.72-8.79 2.09-9.47 16.24-1.35 19.65 4.59 2.03 9.6-.1 13.14-3.17-.85 4.14-5.7 5.06-9.25 5.29-7.11.54-14.78-5.52-13.5-13.11zM133.26 2.48c1.45-.05 2.9-.13 4.35-.21-.91 3.51-.58 7.15-.61 10.73.07 3.91-.35 7.88.59 11.72-1.45-.08-2.89-.15-4.34-.19.4-7.34.39-14.72.01-22.05z"/><path opacity=".5" d="M44.39 4.03c.64-.53 1.28-1.05 1.92-1.57 1.27.85 2.56 1.66 3.84 2.49-.01.82-.02 2.46-.03 3.28-1.65-1.68-3.07-4.12-5.73-4.2z"/></g></svg>