<svg width="166pt" height="36" viewBox="0 0 166 27" xmlns="http://www.w3.org/2000/svg"><g fill="#b2b2b2"><path opacity=".7" d="M9.49 0h3.57c2.02.51 4.11 1.1 6.13.27-.05 2.72-.05 5.45-.07 8.18-.78-2.77-1.65-6.07-4.62-7.25-3.27-1.85-7.58.05-8.78 3.51-1.58 4.56-1.24 9.52-1.05 14.27.09 2.93 1.14 6.36 4.21 7.38 2.62.32 6.43.89 7.43-2.35.27-2.31.11-4.64.06-6.95-1.37-.24-2.72-.52-4.07-.84 4.16-.05 8.4-.37 12.49.55-1.02.1-3.07.32-4.1.42-.02 3.27-.01 6.54.01 9.81h-.35c-.62-2.3-4.3-2.21-4.81 0H8.41C3.25 25.2.32 19.87 0 14.64V12C.59 6.59 4.18 1.6 9.49 0zM38.22 4.99c2.5-.37 5.1-.63 7.54.18-.8.13-2.42.38-3.22.51-.08 5.38.17 10.77-.08 16.15-.04 2.4-2.03 4.01-3.88 5.17h-6.51c-2.68-.8-5.13-2.98-5.19-5.95-.23-5.12-.02-10.25-.04-15.37-.87-.12-2.61-.37-3.47-.49 3.43-.76 7.11-.86 10.53 0-.86.12-2.57.35-3.43.46.22 5.87-.46 11.8.37 17.62.93 3.46 4.86 3.29 7.72 3.17 1.19-1.49 3.14-2.73 3.04-4.87.3-5.27.01-10.55.13-15.82-.87-.19-2.63-.57-3.51-.76zM46.4 4.97c5.57-.53 11.18-.24 16.76-.2 0 2.25-.02 4.5-.08 6.76-.83-1.95-1.03-4.62-3.21-5.6-2.01-.57-4.14-.34-6.2-.43-.01 3.19-.01 6.38 0 9.57 2.7.17 5.08-.99 5.56-3.84 0 2.84.04 5.67-.11 8.5-.23-.73-.7-2.2-.93-2.93-1.46-.58-2.96-1.04-4.5-1.39-.03 3.69 0 7.37-.08 11.06 1.83-.08 3.65-.13 5.48-.15 3.13-.99 4.77-3.68 5.45-6.73.16 2.46.17 4.94.04 7.41H46.33c1.15-.25 2.29-.51 3.44-.77.68-6.79.21-13.63.32-20.44-1.24-.26-2.46-.54-3.69-.82zM158.47 5.14c2.45-.73 5.02-.47 7.53-.36v.44c-.85.12-2.55.38-3.4.51.04 7.09-.03 14.18.07 21.27h-.76c-4.57-6.97-9.11-13.95-13.69-20.92 0 6.73-.11 13.45.09 20.17.89.19 2.67.56 3.57.75h-8.12c.9-.22 2.7-.65 3.6-.86.01-6.82-.02-13.64.04-20.45-.83-.13-2.48-.38-3.31-.51 2.32-.72 4.78-.64 7.16-.36 4.1 4.75 6.7 10.64 10.7 15.5-.26-4.87-.18-9.74-.13-14.61-.84-.14-2.51-.43-3.35-.57zM66.78 4.96c4.01-.29 8.06-.53 12.07-.07 2.93.35 6.01 2.86 5.46 6.08-.41 2.19-2.52 3.22-4.29 4.17 1.62.9 3.78 1.39 4.61 3.25 1.47 2.62-.58 6.49 2.29 8.38.45-.41 1.33-1.23 1.77-1.65-.04.47-.13 1.41-.17 1.88h-4.04c-3.75-1.61-2.59-6.15-3.23-9.36-1.49-2.53-4.9-1.86-7.36-2.08-.07 3.56-.12 7.14.33 10.69 1.5.18 2.99.45 4.47.75H66.41c1.31-.27 2.64-.5 3.97-.68-.13-6.85-.01-13.7-.06-20.56-.88-.2-2.65-.6-3.54-.8m7.1.56c0 3.04.01 6.08-.09 9.12 2.13.02 5.42 1.06 6.52-1.38.54-1.97.63-4.27-.32-6.13-1.39-2.04-4.01-1.47-6.11-1.61zM89.5 5.12c3.48-.54 7.15-.87 10.6.07-.86.11-2.56.35-3.41.47-.04 6.93.09 13.87-.07 20.8 1.56-.05 3.12-.07 4.68-.08 3.38-.92 4.79-3.93 5.34-7.12.24 2.57.33 5.17.02 7.74h-17.4c1.17-.25 2.35-.51 3.52-.76.65-6.82.2-13.68.31-20.51-1.2-.19-2.4-.39-3.59-.61zM110.47 26.31c3.19-7.41 5.4-15.19 8.47-22.65 3.02 7.45 5.56 15.09 8.67 22.51.65.21 1.96.62 2.61.83h-9.39c.7-.19 2.1-.56 2.8-.74-.83-2.23-1.63-4.47-2.43-6.71-2.46.01-4.91.01-7.37.01-.76 2.3-1.6 4.57-2.4 6.85.94.15 2.81.44 3.74.59h-7.82c.78-.17 2.34-.52 3.12-.69m3.77-7.62c2.23.02 4.47.02 6.71-.01-1.06-2.91-2.08-5.84-3.11-8.77-1.9 2.57-2.3 5.91-3.6 8.78zM131.13 5.2c3.42-.99 7.07-.55 10.55-.13-1.18.24-2.37.46-3.56.66.13 6.83-.09 13.66.15 20.49 1.19.26 2.39.52 3.59.78h-10.08c.68-.2 2.02-.6 2.7-.8.08-6.85.01-13.7.05-20.55-.85-.11-2.55-.34-3.4-.45z"/></g></svg>