<svg width="164pt" height="36" viewBox="0 0 164 27" xmlns="http://www.w3.org/2000/svg"><g fill="#b3b3b3"><path opacity=".7" d="M.2.79c2.1.05 4.21.2 6.25.76-.08 6.34-.02 12.68-.04 19.01 3.07.02 6.13.02 9.2.07.13 1.87.18 3.75.18 5.62-5.17-.03-10.34-.01-15.51-.02C.26 17.75.2 9.27.2.79zM19.11 26.2C22.06 17.66 25 9.08 28.59.79c2.88.61 7.95-1.45 8.84 2.57 2.4 7.63 4.93 15.21 7.18 22.88-1.97.02-3.93.03-5.9.04-.63-1.92-1.04-3.96-2.09-5.71-3.13-.25-6.27-.08-9.41-.11-.56 2.13-1.44 4.17-2.85 5.89-1.75-.06-3.5-.11-5.25-.15m9.7-10.69c2.17-.01 4.34 0 6.52-.01-.98-2.93-2.04-5.84-3.33-8.65-1.32 2.78-2.25 5.73-3.19 8.66zM50.62 3.63C55.23-.09 61.65.33 67 2.01c-.25 1.65-.76 3.24-1.6 4.69-3.64-.3-8.4-1.64-10.97 1.84-3.24 3.55-1.97 9.22 1.69 11.96 3.05.88 6.2.61 9.26-.06.75 1.56 1.32 3.2 1.59 4.91-5.39 1.77-11.93 2.14-16.46-1.84-6.21-4.76-6.07-15.16.11-19.88zM71.91 4.97c4.65-5.78 14.47-5.57 19.12.09 4.98 5.53 3.81 15.37-2.64 19.28-5.03 3.58-12.57 2.5-16.46-2.27-2.08-2.19-2.52-5.25-3.15-8.06.57-3.14.77-6.62 3.13-9.04m4.61 13.44c1.67 2.93 5.24 2.39 8.06 2.15 1.76-1.81 3.69-3.81 3.55-6.54.51-4.01-2.86-8.4-7.13-7.74-5.63.37-8.23 8.11-4.48 12.13zM101.43 2.49c4.78-2.72 10.81-1.85 15.57.48-.54 1.31-1.08 2.61-1.62 3.92-3.61-.14-7.4-2.08-10.83-.07v2.29c4.15 2.36 9.87 2.22 12.78 6.48 1 2.65.97 6.36-1.58 8.17-5.36 4.42-14.11 3.32-18.82-1.59 1.32-1.26 2.6-4.11 4.84-2.73 3.06 1.5 6.46 1.53 9.78 1.19-.2-1.02.27-2.55-.94-3.09-3.87-2.32-9.31-1.99-12.12-6.04-2.36-3.08.03-7.3 2.94-9.01zM120.17 6.53c.47-1.76-.9-5.21 1.7-5.43 6.63-.45 13.3-.05 19.94-.18-.06 1.81-.13 3.62-.24 5.43-2.4.15-4.81.2-7.21.21-.1 6.55-.01 13.11-.05 19.66-2.06.04-4.12.06-6.18.09-.47-6.56-.1-13.15-.24-19.72-2.57-.04-5.14-.03-7.72-.06zM145.72.93c5.89-.02 11.79-.01 17.68-.01-.27 1.8.6 4.1-.97 5.46-3.38.38-6.8.09-10.2.19-.01.95-.05 2.85-.06 3.8 3.09-.01 6.18-.02 9.27-.05-.02 1.98-.04 3.96-.08 5.94-3.06-.03-6.12-.04-9.18 0-.03 1.43-.05 2.86-.06 4.29 3.76.03 7.53.03 11.3-.02-.27 1.9.53 4.46-1.59 5.53-5.34.44-10.73.03-16.09.2-.03-8.44.02-16.89-.02-25.33z"/></g></svg>