<svg width="163pt" height="29pt" viewBox="0 0 163 29" xmlns="http://www.w3.org/2000/svg"><g fill="#b2b2b2"><path opacity=".7" d="M0 5.93l2.71-.56c1.97.98 4.14.64 6.23.39-1.08.91-2.78 1.58-2.55 3.29-.19 6.25.02 12.51-.05 18.77 2.85.02 5.82.52 8.56-.43 1.12-1.02 2.09-2.18 3.1-3.3-.77 1.56-1.33 3.2-1.67 4.91H.34c.54-.19 1.62-.56 2.16-.75 1.12-7.17.42-14.54-.02-21.75-.62.1-1.86.32-2.48.42v-.99zM44.51 5.53c1.83.1 3.66.18 5.5.24 4.19 5.17 8.39 10.33 12.5 15.58.06-4.63.04-9.27 0-13.9-.52-.6-1.04-1.21-1.56-1.81 1.59-.03 3.18-.06 4.77-.11-.63 1.11-1.89 2.02-1.8 3.42-.18 6.68-.11 13.37-.08 20.05h-.28c-5.43-6.46-10.48-13.25-15.78-19.82.37 6.59-.89 13.37.79 19.82h-3.54l1.51-1.71c-.19-6.12.04-12.24-.07-18.36.18-1.46-1.25-2.31-1.96-3.4zM75.18 6.25c4.08-2.01 8.45.12 12.59.67.02 1.69.04 3.38.07 5.08-1.36-1.94-2.55-4.24-4.81-5.28-2.36-.71-5.18-.66-7.17.96-5.62 4.37-6.02 14.35-.31 18.8 4.07 2.97 9.29.64 12.76-2.15-1.85 2.14-4.11 3.88-7.08 4.13l2.69.54h-5.93c-3.61-.71-7.42-2.37-9.04-5.93-3.45-6.01-.1-14.35 6.23-16.82zM90.22 16.97c-.13-6.63 6.25-12.42 12.85-11.65 7.13.2 12.74 7.94 10.74 14.78-1.01 4.54-5.02 7.68-9.34 8.9h-4.16c-5.72-.91-10.53-6.11-10.09-12.03m8.11-9.62c-3.29 2.36-3.83 6.84-3.76 10.59.14 3.51 1.17 7.67 4.54 9.43 3.03 1.25 7.03.42 8.67-2.61 2.47-4.25 2.35-9.76.65-14.26-1.38-3.99-6.71-5.48-10.1-3.15zM135.47 5.69c1.55.01 3.1.01 4.65.01-.57.7-1.14 1.39-1.7 2.09.82 6.09 1.43 12.22 2.42 18.29.11 1.25 1.02 2.14 1.9 2.92h-6.37c.48-1.29 1.01-2.63.74-4.04-.6-5.23-1.46-10.43-2.09-15.66-2.68 5.53-4.89 11.27-7.3 16.92-2.93-5.39-5.11-11.14-7.84-16.63-.42 6.47-1.88 12.9-1.48 19.41h-2.28c1.35-4.51 1.35-9.24 1.99-13.87.24-3.2 1.44-6.8-.9-9.55 1.65.08 3.29.14 4.94.2 2.29 4.8 4.38 9.7 6.79 14.45 2.03-4.77 4.05-9.53 6.13-14.27l.4-.27zM146.47 5.68c5.51.13 11.02.09 16.53-.01v3.42c-2.32-4.05-7.64-2.22-11.42-2.57-.11 2.96-.12 5.92-.06 8.88 3.23.03 6.58.29 9.61-1.07-.13 1.05-.25 2.11-.36 3.16-2.62-2.15-6.19-1.03-9.29-1.17-.03 4.01-.03 8.03.06 12.04 3.86-.26 8.75 1.11 11.46-2.52V29h-15.72c1.55-4.51.81-9.32.97-13.99-.1-3.18.69-6.83-1.78-9.33zM20.15 29c4.11-7.66 6.59-16.07 10.57-23.8C34.21 13.11 37.22 21.22 41 29h-5.85c.31-.46.94-1.38 1.26-1.84-1.2-2.78-2.34-5.58-3.45-8.39-2.34 0-4.68 0-7.02.01-1.49 3.3-2.92 6.65-3.63 10.22h-2.16m6.43-11.65c1.99.21 3.98.24 5.98.18-.93-2.45-1.81-4.91-2.68-7.39a86.77 86.77 0 00-3.3 7.21z"/></g></svg>