<svg xmlns="http://www.w3.org/2000/svg" preserveAspectRatio="xMidYMid" width="31" height="31"><path d="M15.25 30.5C6.827 30.5 0 23.673 0 15.25S6.827 0 15.25 0 30.5 6.827 30.5 15.25 23.673 30.5 15.25 30.5zm0-28.117c-7.107 0-12.867 5.76-12.867 12.867 0 7.106 5.76 12.867 12.867 12.867 7.107 0 12.867-5.761 12.867-12.867 0-7.107-5.76-12.867-12.867-12.867zm4.771 13.813c-.041-.224-.694-1.827-1.906-1.906-2.256-.298-2.859 1.662-2.859 1.906v6.672h-2.86V11.431h2.86v1.906c.16-.081 1.364-1.865 3.812-1.906 3.129.041 3.701 2.389 3.801 3.532v7.918l-2.848-.013v-6.672zm-12.39-4.765h2.859v11.437H7.631V11.431zm1.429-.953a1.43 1.43 0 11.001-2.859 1.43 1.43 0 01-.001 2.859z" fill-rule="evenodd" fill="#b2b2b2"/></svg>