<svg xmlns="http://www.w3.org/2000/svg" preserveAspectRatio="xMidYMid" width="47" height="55"><path d="M46.913 37.992c-.325.48-.855.749-1.462.749-.699 0-1.406-.388-1.767-.617l-.212-.162c-.04-.04-4.608-4.141-12.873-4.141-3.1 0-6.358.574-9.688 1.701a3.567 3.567 0 0 1-1.06.162c-1.302 0-2.328-.743-2.753-1.992l-4.056-11.991c-.167-.366-.459-1.215-.103-2.145.211-.547.71-1.279 1.905-1.685.22-.064 13.411-3.815 16.339-15.476C31.567 1.241 32.247.003 33.5.003c.501 0 1.406.209 1.88 1.611l4.061 12.018a6.73 6.73 0 0 1 4.402 4.271 6.72 6.72 0 0 1-.908 6.059l4.058 11.994c.099.238.484 1.193-.08 2.036zM39.58 23.297l-2.4-7.1-3.736-11.039c-3.998 11.289-16.203 15.111-17.619 15.518l4.084 12.068c3.685-1.264 7.269-1.887 10.687-1.887 6 0 10.277 1.893 12.671 3.335L39.58 23.297zm-15.442-1.444c-.517 0-.988-.341-1.132-.861a1.17 1.17 0 0 1 .82-1.442c.073-.02 7.051-1.996 7.648-6.699a1.182 1.182 0 0 1 1.31-1.015 1.178 1.178 0 0 1 1.021 1.31c-.796 6.264-9.007 8.571-9.355 8.667-.107.027-.213.04-.312.04zM15.469 40.66c0 3.64 3.67 5.421 2.41 8.063 4.338 4.399-1.086 5.34-1.086 5.34-1.765.6-2.082-1.256-2.082-1.256l-3.703-10.963c-.79-2.831-2.546-2.308-2.546-2.308-4.464 1.512-6.09-3.607-6.09-3.607L.319 29.866c-1.491-4.405 2.996-6.145 2.996-6.145l5.765-1.952c1.86-.628 2.142 1.127 2.142 1.127l4.648 14.035c.389 1.173-.401 3.729-.401 3.729z" fill-rule="evenodd"/></svg>