<svg version="1.0" xmlns="http://www.w3.org/2000/svg" width="346.667" height="346.667" viewBox="0 0 260 260"><path d="M45 39.5C16.1 45.3.2 65.3 2.4 93c1 12.6 5 21.3 14.3 30.8 6.6 6.8 11.2 9.6 32.1 20.2C73.4 156.5 79 161.7 79 172c0 4-2 9.1-4.5 11.7-.7.6-3.2 2.2-5.6 3.5-3.9 2-5.8 2.3-15.9 2.3-14.5-.1-28.8-3.4-44.5-10.4-2.2-1-5-2.2-6.2-2.5l-2.3-.7v35l7.8 2.9c6.7 2.6 14.2 4.5 26.7 6.7 6.2 1.1 28.7.5 35.5-.9.8-.1 3.3-.6 5.5-1 6.2-1.2 19.5-8 24.8-12.6 2.6-2.3 6.1-6.2 7.8-8.7 9.3-13.5 10.7-35 3.2-50.3-2.5-5-13.9-18-15.9-18-.5 0-2.1-1.1-3.6-2.3-1.5-1.3-11.6-6.9-22.5-12.3-26.8-13.4-31.8-18.5-30-30.1 2.6-15.6 21.8-19.1 50.7-9.2 6.3 2.2 11.9 4.1 12.4 4.2.7.2 12.6-26.6 12.6-28.4 0-1.1-18-7.5-27.5-9.9C76.4 38.2 55 37.5 45 39.5zM187.8 38.5c-.2.2-2.5.6-5.2.9-6.1.9-15.2 4-21.4 7.4-7.1 3.9-15.7 13.3-18.2 19.9-4.1 10.9-2.9 25.1 3 36.2 3 5.6 12.6 16.2 16.6 18.4 1.1.6 2.1 1.3 2.4 1.7.3.4 1.3 1.1 2.4 1.7 1.7.9 1.4 1.3-2.7 3.3-10.3 5.2-20.2 14.8-25.1 24.7-8.5 16.8-4.8 41.2 7.8 52.7 8.8 7.9 17.7 11.7 35.1 15.1 3.8.7 25 .7 29 0 20-3.6 35.7-12.9 42.8-25.5 6.4-11.3 7.3-27.2 2.3-38.4-4.9-11.1-14.4-20.5-28.9-29l-4.7-2.8 6-3.7c16.6-10.1 24.6-21.8 25.4-37.4.6-11.9-3.1-21.5-11.2-29.7-10.3-10.1-24.1-15.1-43.4-15.5-6.5-.1-11.9-.1-12 0zm21.3 30.2c7.3 3.8 10.2 8.6 9.6 16.4-.8 9.3-5.3 15.3-15.9 21.2l-5 2.8-6.2-3.5c-7.7-4.4-11.3-7.8-13.7-13-3.7-8.2-1.9-17.2 4.4-22 7.2-5.5 18.1-6.2 26.8-1.9zm3.7 83.3c7.8 6.2 11.4 11.6 12 17.9.9 9.8-4.5 18-14.1 21.6-6.4 2.4-19.4 2.4-26.4.1-14.4-4.8-18.8-21.7-9.3-34.9 3.5-5 6.8-7.7 14.9-12.4l5.5-3.2 5.9 3.2c3.2 1.8 8.4 5.2 11.5 7.7z"/></svg>