<svg xmlns="http://www.w3.org/2000/svg" preserveAspectRatio="xMidYMid" width="54" height="54"><path d="M38.812 50.625h-3.375a3.378 3.378 0 01-3.375-3.375v-5.063H21.937v5.063a3.377 3.377 0 01-3.375 3.375h-3.375a1.687 1.687 0 100 3.375h23.625a1.687 1.687 0 100-3.375zM51.047-.001H2.953C1.323-.001 0 1.417 0 3.164v32.484c0 1.747 1.323 3.164 2.953 3.164h48.094c1.63 0 2.953-1.417 2.953-3.164V3.164c0-1.747-1.323-3.165-2.953-3.165zm-.422 35.438H3.375V3.375h47.25v32.062z" fill-rule="evenodd" fill="#222"/></svg>