<svg xmlns="http://www.w3.org/2000/svg" preserveAspectRatio="xMidYMid" width="34" height="55"><path d="M29.292 54.25H4.397c-2.424 0-4.394-1.946-4.394-4.341V4.337c0-2.394 1.97-4.341 4.394-4.341h24.895c2.425 0 4.394 1.947 4.394 4.341v45.572c0 2.395-1.969 4.341-4.394 4.341zm-12.447-1.628c1.31 0 2.38-1.056 2.38-2.351s-1.07-2.351-2.38-2.351c-1.311 0-2.38 1.056-2.38 2.351s1.069 2.351 2.38 2.351zM30.024 8.678a.73.73 0 0 0-.732-.724H4.397a.73.73 0 0 0-.732.724V45.57c0 .397.329.722.732.722h24.895a.729.729 0 0 0 .732-.722V8.678zm-2.922 33.998h-9.526a.72.72 0 0 1-.724-.717v-.013c0-.396.325-.718.724-.718h9.526c.401 0 .726.322.726.718v.013a.722.722 0 0 1-.726.717zm0-3.617h-9.526a.72.72 0 0 1-.724-.716v-.015a.72.72 0 0 1 .724-.716h9.526c.401 0 .726.321.726.716v.015a.72.72 0 0 1-.726.716zm0-5.064h-9.526a.72.72 0 0 1-.724-.716v-.015a.72.72 0 0 1 .724-.715h9.526a.72.72 0 0 1 .726.715v.015a.721.721 0 0 1-.726.716zm0-3.616h-9.526a.721.721 0 0 1-.724-.717v-.014a.72.72 0 0 1 .724-.716h9.526c.401 0 .726.321.726.716v.014a.722.722 0 0 1-.726.717zm0-5.065h-9.526a.72.72 0 0 1-.724-.716v-.014a.72.72 0 0 1 .724-.716h9.526c.401 0 .726.321.726.716v.014a.721.721 0 0 1-.726.716zm0-3.616h-9.526a.72.72 0 0 1-.724-.716v-.014a.72.72 0 0 1 .724-.717h9.526c.401 0 .726.321.726.717v.014a.721.721 0 0 1-.726.716zm-.006-5.788h-9.525a.72.72 0 0 1-.726-.715v-.014a.72.72 0 0 1 .726-.716h9.525a.72.72 0 0 1 .725.716v.014a.72.72 0 0 1-.725.715zm0-3.616h-9.525a.72.72 0 0 1-.726-.716v-.014a.72.72 0 0 1 .726-.716h9.525a.72.72 0 0 1 .725.716v.014a.72.72 0 0 1-.725.716zM14.465 39.421a.896.896 0 0 1-.289-.051l-1.505 1.912a.896.896 0 0 1 .147.489.912.912 0 0 1-.916.905.911.911 0 0 1-.915-.905c0-.077.012-.152.032-.223l-1.863-1.227a.922.922 0 0 1-.548.185.92.92 0 0 1-.341-.067l-1.428 1.613c.075.132.122.28.122.443a.911.911 0 0 1-.916.904.91.91 0 0 1-.915-.904.91.91 0 0 1 1.255-.838l1.429-1.614a.885.885 0 0 1-.122-.442.91.91 0 0 1 .916-.904.91.91 0 0 1 .915.904.872.872 0 0 1-.032.224l1.863 1.226a.921.921 0 0 1 .548-.184.89.89 0 0 1 .289.051l1.505-1.912a.898.898 0 0 1-.146-.49.91.91 0 0 1 .915-.904c.504 0 .915.406.915.904a.911.911 0 0 1-.915.905zm-2.746-29.297h2.197v7.234h-2.197v-7.234zM9.751 36.2v-.769c-1.092-.126-1.694-.787-1.694-.787l.594-.812s.651.627 1.499.627c.456 0 .871-.234.871-.719 0-1.004-2.862-.904-2.862-2.701 0-.863.652-1.531 1.592-1.683v-.786h.729v.77c.982.084 1.49.611 1.49.611l-.474.878s-.575-.519-1.33-.519c-.508 0-.905.293-.905.71 0 .997 2.854.821 2.854 2.695 0 .854-.602 1.581-1.635 1.716v.769h-.729zm4.116-12.452c-.246 1.499-1.484 2.723-3.002 2.966-2.032.323-3.819-1.009-4.197-2.846h3.587a.728.728 0 0 0 .732-.723v-3.543c1.86.372 3.208 2.137 2.88 4.146zM8.79 13.018h2.197v4.34H8.79v-4.34zm1.465 9.765a.365.365 0 0 1-.366.362H6.594c0-1.997 1.639-3.617 3.661-3.617v3.255zm-4.393-7.596h2.195v2.17H5.862v-2.17z" fill-rule="evenodd"/></svg>