<svg xmlns="http://www.w3.org/2000/svg" preserveAspectRatio="xMidYMid" width="32" height="31"><path d="M15.75 31.5C7.051 31.5 0 24.449 0 15.75S7.051 0 15.75 0 31.5 7.051 31.5 15.75 24.449 31.5 15.75 31.5zm0-29.039C8.41 2.461 2.461 8.41 2.461 15.75c0 7.339 5.949 13.289 13.289 13.289s13.289-5.95 13.289-13.289c0-7.34-5.949-13.289-13.289-13.289zm6.299 9.845l.002.053-.002.043.002.02c.219 5.643-3.852 10.218-9.094 10.218-1.844 0-3.587-.567-5.082-1.547 2.2.376 3.979-.804 4.5-1.452-1.462 0-2.8-1.346-2.904-2.376.295.049.97.112 1.352-.11-1.984-.585-2.529-2.2-2.506-3.418.332.347 1.037.426 1.419.394-1.118-.744-1.97-2.786-.985-4.623 1.603 2.249 4.448 3.563 6.883 3.63a3.77 3.77 0 01-.083-.779c0-1.933 1.455-3.5 3.249-3.5.925 0 1.757.416 2.35 1.082l-.001-.002c.519 0 1.57-.459 2.027-.773-.174.719-.879 1.624-1.354 1.9.742-.079 1.538-.393 1.803-.55a5.869 5.869 0 01-1.576 1.79z" fill-rule="evenodd" fill="#b2b2b2"/></svg>