<svg width="30" height="30" viewBox="0 0 30 30" fill="none" xmlns="http://www.w3.org/2000/svg">
<path d="M9.87012 8.44437C10.1024 8.53767 10.2784 8.72899 10.459 8.89766C11.7261 10.175 20.0711 18.5183 21.3467 19.7871C21.5353 19.9859 21.7487 20.1908 21.818 20.4617C22.0723 21.2786 21.2344 22.1165 20.4183 21.8613C20.1466 21.7912 19.94 21.5812 19.7412 21.3909C18.4714 20.1143 10.1272 11.7702 8.84898 10.5004C8.63594 10.2805 8.40217 10.0451 8.34569 9.73782C8.14597 8.90268 9.05604 8.09627 9.87012 8.44437Z" fill="#4801FF"/>
<path d="M8.39923 20.3566C8.49254 20.1243 8.68385 19.9483 8.85252 19.7677C10.1298 18.5006 18.4732 10.1556 19.742 8.87999C19.9408 8.69138 20.1457 8.47798 20.4165 8.40875C21.2334 8.15441 22.0714 8.99232 21.8162 9.80837C21.746 10.0802 21.5361 10.2867 21.3457 10.4855C20.0692 11.7553 11.725 20.0995 10.4552 21.3777C10.2354 21.5908 9.99995 21.8245 9.69268 21.881C8.85754 22.0807 8.05113 21.1707 8.39923 20.3566Z" fill="#4801FF"/>
</svg>
