<svg xmlns="http://www.w3.org/2000/svg" viewBox="0 0 29.215 19.151">
  <defs>
    <style>
      .cls-1 {
        fill: #fff;
      }
    </style>
  </defs>
  <path id="Path_1" data-name="Path 1" class="cls-1" d="M29.214,107.834a2.392,2.392,0,0,0-.639-1.618c-.007-.009-.008-.019-.015-.027s-.016-.011-.023-.018a2.453,2.453,0,0,0-1.778-.763H2.455a2.457,2.457,0,0,0-1.779.763c-.007.007-.016.01-.023.018s-.009.019-.015.027A2.393,2.393,0,0,0,0,107.834v14.3a2.4,2.4,0,0,0,.666,1.65c.008.009.011.02.02.029l.01.007a2.458,2.458,0,0,0,1.76.741h24.3a2.457,2.457,0,0,0,1.76-.741l.01-.006c.009-.008.011-.019.019-.028a2.4,2.4,0,0,0,.667-1.651v-14.3Zm-9.562,6.394,8.419-6.981a1.4,1.4,0,0,1,.131.587v14.3a1.4,1.4,0,0,1-.107.535Zm7.107-7.82a1.445,1.445,0,0,1,.594.13L14.607,117.106,1.861,106.538a1.446,1.446,0,0,1,.594-.13Zm-25.64,16.26a1.4,1.4,0,0,1-.107-.535v-14.3a1.4,1.4,0,0,1,.131-.587l8.419,6.981Zm1.336.891a1.441,1.441,0,0,1-.647-.158l8.532-8.528,3.942,3.269a.508.508,0,0,0,.65,0l3.942-3.269,8.532,8.528a1.44,1.44,0,0,1-.647.158Z" transform="translate(0 -105.408)"/>
</svg>
