<svg width="33" height="33" viewBox="0 0 33 33" fill="none" xmlns="http://www.w3.org/2000/svg">
<g clip-path="url(#clip0)">
<path d="M28.9714 5.94321H4.03538C1.80944 5.94321 0 7.75264 0 9.97859V27.0214C0 29.2474 1.80944 31.0568 4.03538 31.0568H28.9646C31.1906 31.0568 33 29.2474 33 27.0214V9.98542C33.0068 7.75947 31.1974 5.94321 28.9714 5.94321ZM31.1633 27.0214C31.1633 28.23 30.18 29.2132 28.9714 29.2132H4.03538C2.82682 29.2132 1.84358 28.23 1.84358 27.0214V9.98542C1.84358 8.77685 2.82682 7.79361 4.03538 7.79361H28.9646C30.1732 7.79361 31.1564 8.77685 31.1564 9.98542V27.0214H31.1633Z" fill="black"/>
<path d="M20.8119 18.2883L28.8826 11.0506C29.2582 10.7092 29.2923 10.1288 28.9509 9.74643C28.6095 9.37088 28.0291 9.33674 27.6468 9.67815L16.517 19.6676L14.3457 17.7284C14.3389 17.7216 14.332 17.7148 14.332 17.7079C14.2843 17.6601 14.2365 17.6192 14.1818 17.5782L5.34633 9.67132C4.96396 9.32992 4.38357 9.36406 4.04217 9.74643C3.70077 10.1288 3.73491 10.7092 4.11728 11.0506L12.2836 18.3498L4.15142 25.9631C3.7827 26.3113 3.76222 26.8917 4.11045 27.2672C4.29481 27.4584 4.54062 27.5608 4.78643 27.5608C5.01175 27.5608 5.23708 27.4789 5.41461 27.315L13.6697 19.5925L15.9093 21.5931C16.0869 21.7502 16.3054 21.8253 16.5239 21.8253C16.7424 21.8253 16.9677 21.7433 17.1384 21.5863L19.4394 19.5242L27.6468 27.3218C27.8243 27.4925 28.0564 27.5745 28.2818 27.5745C28.5276 27.5745 28.7666 27.4789 28.9509 27.2877C29.2992 26.919 29.2855 26.3318 28.9168 25.9835L20.8119 18.2883Z" fill="black"/>
</g>
<defs>
<clipPath id="clip0">
<rect width="33" height="33" fill="white"/>
</clipPath>
</defs>
</svg>
