<svg width="32" height="32" fill="none" xmlns="http://www.w3.org/2000/svg"><path fill="#fff" d="M0 0h32v32H0z"/><path fill="#252525" d="M0 0h16v32H0z"/><path fill="#fff" d="M16 0h16v32H16zM9.4 11.406H6.582L6.09 13H3.893L7.02 4.469h1.934L12.107 13H9.898L9.4 11.406zM7.074 9.818h1.834l-.92-2.959-.914 2.96zm.826 14.17H6.787V27H4.73v-8.531h3.358c1.012 0 1.803.224 2.373.674.57.449.855 1.084.855 1.904 0 .594-.12 1.086-.363 1.476-.238.391-.613.707-1.125.95l1.781 3.44V27H9.406L7.9 23.988zM6.787 22.4h1.3c.392 0 .684-.101.88-.304.199-.207.299-.494.299-.862 0-.367-.1-.654-.3-.861-.198-.21-.491-.316-.878-.316h-1.3V22.4z"/></svg>