<svg width="33" height="33" viewBox="0 0 33 33" fill="none" xmlns="http://www.w3.org/2000/svg">
<path d="M16.5 0C7.4315 0 0 7.49595 0 16.5645C0 25.5803 7.36377 33 16.5 33C25.6249 33 33 25.5914 33 16.5645C33 7.49595 25.5685 0 16.5 0ZM19.4004 30.7764C18.4724 30.9697 17.4862 31.0664 16.5 31.0664C15.5138 31.0664 14.5276 30.9697 13.5996 30.7764V26.2518C13.5996 25.1689 13.8896 24.7822 14.2764 24.2601C14.4733 24.035 14.5921 23.8331 15.475 22.5007L13.9863 22.2686C10.1577 21.7079 8.64956 19.7161 8.05009 18.1692C7.27666 16.1004 7.68276 13.5092 9.07505 11.8659C9.2878 11.6144 9.46177 11.1889 9.30718 10.7443C9.01689 9.85478 9.05566 8.44336 9.24902 7.9018C10.2742 8.04833 11.3284 8.78275 12.2076 9.31348C12.6127 9.54989 12.8252 9.48745 13.0195 9.50684C13.726 9.3598 14.828 9.00405 16.5194 9.00405C17.5635 9.00405 18.6657 9.15864 19.7486 9.46806C19.9422 9.46353 20.2534 9.62819 20.7927 9.31348C21.7116 8.75354 22.73 8.0443 23.751 7.9018C23.9443 8.44336 23.9831 9.85478 23.6931 10.7443C23.5382 11.1889 23.7122 11.6144 23.9252 11.8659C25.3172 13.5095 25.7233 16.1004 24.9499 18.1692C24.3504 19.7161 22.8423 21.7079 19.0137 22.2686L17.525 22.5007C18.4376 23.8779 18.5338 24.043 18.7239 24.2601C19.1104 24.7822 19.4004 25.1689 19.4004 26.2518V30.7764ZM21.334 30.2157V26.2518C21.334 25.1496 21.1019 24.4149 20.7924 23.8733C23.7316 23.0808 25.82 21.3403 26.748 18.846C27.7342 16.2165 27.2896 13.084 25.6458 10.9183C25.9361 9.6229 25.9361 7.55386 25.2399 6.58706C24.9305 6.16182 24.505 5.92969 23.9637 5.92969C23.9443 5.92969 23.9443 5.92969 23.9443 5.92969C22.445 6.01076 21.265 6.76582 19.9999 7.53447C18.8397 7.22504 17.6602 7.07046 16.4806 7.07046C15.2819 7.07046 14.083 7.24443 13.0198 7.53447C11.6879 6.73132 10.5192 6.00874 8.97837 5.92969C8.49497 5.92969 8.06948 6.16182 7.76006 6.58706C7.06416 7.55386 7.06416 9.6229 7.3542 10.9183C5.7104 13.084 5.26577 16.2356 6.25195 18.846C7.17998 21.3403 9.26841 23.0808 12.2076 23.8733C11.9676 24.293 11.7778 24.8346 11.703 25.5675C11.1094 25.7722 10.5945 25.8389 10.1156 25.6982C9.61057 25.5489 9.21705 25.2117 8.87514 24.6367C8.10725 23.3466 6.7993 22.2935 5.31008 22.4304L5.48003 24.3565C6.16962 24.2933 6.85595 25.0229 7.21246 25.6244C7.80059 26.6149 8.59291 27.2644 9.56802 27.5525C10.2919 27.7657 10.9535 27.7607 11.666 27.6086V30.2157C6.03921 28.2433 1.93359 22.868 1.93359 16.5645C1.93359 8.55943 8.49497 1.93359 16.5 1.93359C24.505 1.93359 31.0664 8.55943 31.0664 16.5645C31.0664 22.868 26.9608 28.2433 21.334 30.2157Z" fill="black"/>
</svg>
