<svg width="33" height="33" viewBox="0 0 33 33" fill="none" xmlns="http://www.w3.org/2000/svg">
<path d="M4.9733 2C3.86089 2 2.84958 2.40454 2.09111 3.16301C1.2821 3.97202 0.877563 4.98327 0.877563 6.04513C0.877563 7.15753 1.33264 8.16884 2.09111 8.92731C2.84958 9.68578 3.91144 10.1409 4.92275 10.0903C4.92275 10.0903 4.9733 10.0903 5.0239 10.0903C6.03521 10.0903 6.99592 9.68578 7.75439 8.92731C8.51286 8.16884 8.96794 7.15753 8.96794 6.04513C9.01848 4.98327 8.5634 3.97196 7.80493 3.21349C7.04646 2.40448 6.03515 2 4.9733 2ZM7.04646 8.21945C6.49023 8.77568 5.73176 9.12961 4.92275 9.07906C4.16428 9.07906 3.35527 8.77568 2.79904 8.21945C2.19226 7.66321 1.88888 6.8542 1.88888 6.04519C1.88888 5.23617 2.19226 4.4777 2.79904 3.87093C3.35527 3.3147 4.11374 3.01131 4.9733 3.01131C5.73177 3.01131 6.49023 3.3147 7.04646 3.87093C7.65324 4.4777 7.95663 5.23617 7.95663 6.04519C7.95663 6.8542 7.65324 7.66321 7.04646 8.21945Z" fill="black" stroke="black"/>
<path d="M6.94518 11.1016H2.84945C2.04044 11.1016 1.38306 11.7589 1.38306 12.6186V30.3162C1.38306 31.1252 2.09098 31.8331 2.89999 31.8331H6.94518C7.7542 31.8331 8.46212 31.1252 8.46212 30.3667V12.6186C8.46212 11.8095 7.7542 11.1016 6.94518 11.1016ZM7.45081 30.3667C7.45081 30.6196 7.19797 30.8218 6.94518 30.8218H2.89999C2.64715 30.8218 2.39437 30.569 2.39437 30.3162V12.6186C2.39437 12.3657 2.59661 12.1129 2.84945 12.1129H6.94518C7.19803 12.1129 7.45081 12.3658 7.45081 12.6186V30.3667Z" fill="black" stroke="black"/>
<path d="M24.1374 10.5959H23.0756C21.1035 10.5959 19.2327 11.4555 18.0191 12.8208V12.1129C18.0191 11.6072 17.5135 11.1015 17.0078 11.1015H11.9514C11.4963 11.1015 10.9401 11.5061 10.9401 12.0623V30.9228C10.9401 31.4791 11.4963 31.833 11.9514 31.833H17.5135C17.9686 31.833 18.5248 31.4791 18.5248 30.9228V20.0009C18.5248 18.3322 19.7384 17.0175 21.3058 17.0175C22.1148 17.0175 22.8733 17.3209 23.4295 17.8772C23.9352 18.3322 24.1375 19.0402 24.1375 19.9503V30.8217C24.1375 31.3274 24.6431 31.833 25.1488 31.833H30.2052C30.7108 31.833 31.2165 31.3274 31.2165 30.8217V17.7761C31.2165 13.7309 28.132 10.5959 24.1374 10.5959ZM30.2052 30.7712L30.1546 30.8217H25.1993L25.1487 19.9504C25.1487 18.7368 24.8453 17.8267 24.188 17.1694C23.4295 16.4109 22.4182 16.0063 21.3564 16.0063C19.2327 16.0569 17.564 17.7761 17.564 20.0009V30.8217H12.0019V12.1129H17.0078L17.0584 12.1634V15.349L18.4236 13.9837L18.4741 13.9332C19.4855 12.5174 21.2552 11.6072 23.1261 11.6072H24.188C27.5758 11.6072 30.2052 14.3377 30.2052 17.7761V30.7712V30.7712Z" fill="black" stroke="black"/>
</svg>
