<svg width="58" height="110" xmlns="http://www.w3.org/2000/svg"><g fill="none" fill-rule="evenodd"><path fill="#FFF" d="M26.643 28.108l-11.716 6.825-4.243 6.752v7.428l6.042 21.821 11.22 12.369h10.02l10.07-16.315V57.43l-3.664-12.473-6.406-13.674-6.896-6.168z"/><path d="M32.085 0c-20.777 20.957-27.95 36.223-21.52 45.797C17.85 35.769 23.43 30.503 27.306 30 23.08 44.733 29.978 56.036 48 63.909c14.916-10.937 13.147-23.334-5.308-37.194-7.422-5.573-9.266-5.82-11.861-9.791C28.257 12.988 28.675 7.347 32.085 0z" fill="#E12E41"/><path d="M25.974 109.683C46.91 88.81 54.269 73.585 48.054 64.011 40.16 73.956 34.34 79.18 30.593 79.682 34.679 64.95 28.01 53.647 10.59 45.774-3.829 56.711-2.119 69.11 15.72 82.968c7.175 5.573 8.958 5.82 11.467 9.791 2.487 3.936 2.083 9.577-1.213 16.924z" fill="#114196"/></g></svg>