<?xml version="1.0" encoding="UTF-8"?>
<svg width="58px" height="110px" viewBox="0 0 58 110" version="1.1" xmlns="http://www.w3.org/2000/svg" xmlns:xlink="http://www.w3.org/1999/xlink">
    <!-- Generator: sketchtool 50 (54983) - http://www.bohemiancoding.com/sketch -->
    <title>4ACD8FCF-2946-4D04-9824-95633DBA646B</title>
    <desc>Created with sketchtool.</desc>
    <defs></defs>
    <g id="Page-1" stroke="none" stroke-width="1" fill="none" fill-rule="evenodd">
        <g id="Готье" transform="translate(-101.000000, -35.000000)">
            <g id="logomosek" transform="translate(101.000000, 35.000000)">
                <polygon id="Path-12" fill="#FFFFFF" points="26.6425363 28.1076327 14.9272321 34.9326283 10.6840402 41.6849476 10.6840402 49.1127042 16.725572 70.9340487 27.9456752 83.3025568 37.9662109 83.3025568 48.0357003 66.9877708 48.0357003 57.4298207 44.371861 44.9566096 37.9662109 31.2828036 31.0702148 25.1147683"></polygon>
                <path d="M32.0847025,0 C11.308059,20.9572114 4.13500588,36.2227713 10.565543,45.7966795 C17.8502437,35.7685176 23.4302188,30.5032783 27.3054683,30.0009617 C23.0796696,44.733433 29.9775056,56.0361427 47.9989763,63.9090909 C62.9153254,52.9724217 61.1460723,40.5745211 42.6912171,26.7153891 C35.2694751,21.1418476 33.425499,20.8948527 30.8295683,16.9237322 C28.2568391,12.9881042 28.6752172,7.34686017 32.0847025,0 Z" id="Path" fill="#E12E41"></path>
                <path d="M25.1363578,45.7741144 C4.20069875,66.6481228 -3.15903786,81.8720811 3.05714802,91.4459894 C10.9505958,81.5010305 16.7703569,76.2773928 20.5164314,75.7750762 C16.4314927,90.5075474 23.0994008,101.810257 40.5201559,109.683205 C54.9392933,98.7465361 53.2290153,86.3486355 35.389322,72.4895036 C28.2149714,66.9159621 26.4324612,66.6689672 23.9230614,62.6978466 C21.4360899,58.7622187 21.840522,53.1209746 25.1363578,45.7741144 Z" id="Path-Copy" fill="#114196" transform="translate(25.555123, 77.728660) scale(-1, -1) translate(-25.555123, -77.728660) "></path>
            </g>
        </g>
    </g>
</svg>