<svg xmlns="http://www.w3.org/2000/svg" width="134.892" height="53.391" viewBox="0 0 134.892 53.391"><g transform="translate(-1.164)"><path d="M558.989,0h7.1q-.01,26.541-.009,53.079-3.539-.007-7.078,0C558.968,35.388,559,17.694,558.989,0Z" transform="translate(-430.038)" fill="#2c2c2c"/><path d="M25.509,1.388a26.6,26.6,0,1,1-17.962,9.22,26.518,26.518,0,0,1,17.962-9.22m-1.132,7.34a19.624,19.624,0,0,0-9.142,34.256,19.185,19.185,0,0,0,23.54,1.143,19.646,19.646,0,0,0-1.684-33.26A19.176,19.176,0,0,0,24.377,8.728Z" transform="translate(0 -0.997)" fill="#2c2c2c"/><path d="M398.12.74c2.815-.128,5.635,0,8.453-.053a25.185,25.185,0,0,1,16.079,5.278,25.643,25.643,0,0,1,8.693,28.3,25.32,25.32,0,0,1-5.715,9.507c2.453,3.244,4.861,6.526,7.275,9.8q-4.443-.034-8.886,0c-1.356-1.782-2.669-3.594-4-5.4a26.382,26.382,0,0,1-14.734,3.436q.038.893.08,1.791c-2.41.064-4.824.018-7.239.023Q398.1,27.079,398.12.74m7.095,6.517c-.048,12.592,0,25.185-.025,37.777a19.5,19.5,0,0,0,12.393-3.466A18.6,18.6,0,0,0,425.1,30.092,19.117,19.117,0,0,0,413.255,8.5,19.817,19.817,0,0,0,405.215,7.257Z" transform="translate(-306.023 -0.523)" fill="#2c2c2c"/><path d="M240.759,2.838q4.835,0,9.667,0A24.567,24.567,0,0,1,266.9,9.763a26.471,26.471,0,0,1,7.633,13.919A27,27,0,0,1,271.8,41.868a25.68,25.68,0,0,1-13.575,11.855,24.608,24.608,0,0,1-8.469,1.5c-3-.009-6.006.016-9.01-.011q.041-26.187.009-52.372m7.06,6.7q-.052,19.531-.007,39.062A18.831,18.831,0,0,0,259.2,45.54a19.63,19.63,0,0,0,8.251-12.008,20.032,20.032,0,0,0-.875-11.781A18.884,18.884,0,0,0,247.819,9.538Z" transform="translate(-184.703 -2.187)" fill="#2c2c2c"/></g></svg>