<svg width="300" height="121" viewBox="0 0 300 121" fill="none" xmlns="http://www.w3.org/2000/svg">
<path d="M34.1156 37.1617C33.7578 39.1228 33.2995 41.0634 32.9218 43.0245C31.3197 49.454 30.9671 50.4418 30.3068 57.0263C29.9154 59.5112 29.6802 67.5246 29.5881 70.2079C29.3608 75.0373 29.4865 79.8768 29.9643 84.688C30.68 89.7364 31.7199 94.7339 33.0775 99.6499C33.1333 100.096 33.9399 101.646 33.993 102.091C33.6352 102.447 32.2188 102.487 31.8611 102.843L31.8863 102.618C32.0073 101.725 32.1536 100.847 32.2451 99.9558C31.5801 97.8397 30.8093 95.7482 30.3058 93.5813C29.9175 92.0016 29.5749 90.4067 29.2677 88.807C28.5161 84.9207 28.0919 80.9785 27.9997 77.0219C28.0807 73.2506 28.3774 69.4175 28.1223 65.6332C28.198 60.3827 29.2593 55.2261 30.1758 50.0605C30.9971 45.6319 32.0715 41.2028 34.1156 37.1617Z" fill="#402F1E"/>
<path d="M66.5985 9.3682C70.724 10.4268 73.2175 14.1629 75.5299 17.4277C79.3727 23.7668 82.4374 30.542 84.6585 37.6081C86.7942 43.9674 87.384 50.6724 88.4768 57.2475C90.9902 70.3018 91.2827 84.0135 87.9022 96.9368C86.9452 101.32 84.114 105.58 86.4059 110.079C85.6944 109.42 85.1577 108.595 84.8438 107.68C84.53 106.764 84.4486 105.785 84.607 104.831C86.0023 99.66 87.7696 94.5589 88.4105 89.2183C89.7574 78.1979 88.5315 69.0798 87.1251 58.0829C85.7024 46.5313 83.8877 37.3426 80.049 28.5765C79.888 28.787 79.5754 29.1987 79.4128 29.4098L78.7815 28.7813C78.6484 28.3858 78.3869 27.5933 78.2595 27.1963C77.8512 27.4519 77.4535 27.7075 77.0615 27.9699C77.2178 28.3057 77.5403 28.9777 77.696 29.314C72.9507 28.6221 69.0057 31.6558 65.1927 33.9579C64.8195 34.1699 64.5018 34.4665 64.2655 34.8238C64.0291 35.181 63.8808 35.5887 63.8326 36.0137C62.2152 44.3639 60.9461 52.7895 59.1567 61.1099C58.8142 63.4465 57.9124 66.2404 59.7712 68.2009C63.2317 72.3268 67.1263 77.1089 72.6187 78.3613C75.0569 77.5589 75.3994 74.4093 75.9939 72.2429C78.4841 62.3546 79.8262 52.2145 79.9937 42.0215C80.0842 40.0856 79.6212 37.9193 80.8808 36.2442C81.7321 49.6898 79.6933 63.1966 76.1907 76.1598C74.2713 84.2596 70.8203 91.8572 67.3646 99.3903C66.105 101.296 65.1885 103.473 63.5611 105.102C62.0747 106.321 60.3568 104.931 59.6018 103.608C56.5133 98.6978 55.3753 92.921 53.6269 87.4689C53.0024 85.2622 52.4231 83.0408 51.8133 80.8288C51.5918 80.0165 51.3597 79.2041 51.123 78.3964C51.415 78.5572 51.1198 78.3681 51.4118 78.5279L51.4702 78.7065L51.5097 78.8306C51.7291 79.6158 52.9166 81.2138 53.2239 82.3127C55.0475 74.4287 56.7033 66.5012 58.3575 58.5763C60.5841 47.3621 63.0476 36.0431 62.8061 24.5486C62.6333 20.7402 62.7001 16.9248 63.006 13.1248C63.6739 15.6067 64.1516 18.1354 64.435 20.6893C67.6187 19.5962 71.3823 19.5506 73.9314 17.1134C72.1018 14.0167 69.5956 11.3696 66.5985 9.3682V9.3682ZM66.0845 87.7648C61.5202 86.3501 58.3964 82.3782 53.9736 80.6633C53.4143 84.0381 54.6576 87.3154 55.6331 90.4864C57.4667 95.4315 58.0086 101.216 62.0963 104.995C65.2753 102.503 66.1513 98.3395 68.066 94.9805C68.7708 93.6035 69.3605 92.171 69.8291 90.6975C68.7899 89.4849 67.7134 88.1692 66.0845 87.7648Z" fill="#5A3F1C" stroke="#5A3F1C" stroke-width="2"/>
<path d="M66.5987 9.36812C69.5963 11.3687 72.1032 14.0151 73.9338 17.1112C71.3825 19.5463 67.6216 19.5935 64.4373 20.6871C64.1521 18.1407 63.6726 15.6196 63.003 13.1457C63.0283 12.8901 63.506 12.4941 63.526 12.2427C64.3084 10.895 65.0671 9.74891 66.5987 9.36812Z" fill="#5A3F1C" stroke="#5A3F1C" stroke-width="2"/>
<path d="M78.2607 27.1971C78.3875 27.5946 78.6469 28.384 78.7848 28.782C78.9426 28.9392 79.887 28.308 80.0433 28.4636C80.4921 29.1105 80.6957 31.3936 80.6957 31.3936C80.6957 31.3936 80.7157 33.911 80.8088 35.1728C78.3707 34.9517 76.476 36.5969 74.2452 37.214C71.1888 38.0002 69.2131 40.6573 67.1274 42.8038C65.1939 45.29 63.9235 48.2226 63.4342 51.3288C62.9449 54.4351 63.2526 57.6141 64.3289 60.5701C65.8021 66.227 70.52 70.4649 75.9967 72.2453C75.4006 74.4101 75.0596 77.5612 72.6215 78.3636C67.1306 77.1097 63.2361 72.3307 59.7751 68.2032C57.9162 66.2427 58.818 63.4488 59.1605 61.1122C60.9463 52.7893 62.2153 44.3636 63.8327 36.0134C63.881 35.5884 64.0293 35.1807 64.2656 34.8235C64.5019 34.4662 64.8196 34.1696 65.1928 33.9576C69.0063 31.655 72.9514 28.6212 77.6967 29.3132C77.5404 28.9774 77.2179 28.3054 77.0622 27.9691C77.4547 27.7083 77.8524 27.4527 78.2607 27.1971Z" fill="#5A3F1C" stroke="#5A3F1C" stroke-width="2" stroke-linejoin="round"/>
<path d="M80.8051 35.1763L80.8809 36.2448C79.6182 37.9209 80.0848 40.0868 79.9938 42.0222C79.8263 52.2151 78.4842 62.3553 75.994 72.2436C70.5221 70.4627 65.7978 66.2258 64.3262 60.5684C63.2508 57.6124 62.9437 54.4337 63.4336 51.3278C63.9234 48.222 65.1943 45.2899 67.1279 42.8042C69.2136 40.6577 71.1887 38 74.2415 37.2175C76.4728 36.601 78.3675 34.9558 80.8051 35.1763Z" fill="#5A3F1C" stroke="#5A3F1C" stroke-width="2" stroke-linejoin="round"/>
<path d="M66.0845 87.7657C67.7124 88.1711 68.79 89.4848 69.8281 90.6984C69.3595 92.1718 68.7698 93.6044 68.0649 94.9814C66.6539 94.4295 65.2719 93.8067 63.9242 93.1157C61.4713 91.867 58.6548 91.4003 56.3929 89.7708C56.2061 89.9462 55.8236 90.3071 55.6326 90.4878C54.6603 87.3137 53.4149 84.0384 53.9747 80.6632C58.398 82.3786 61.5207 86.3504 66.0845 87.7657Z" fill="#5A3F1C" stroke="#5A3F1C" stroke-width="2"/>
<path d="M63.9243 93.1156C65.2712 93.8057 66.6523 94.4276 68.0624 94.9787C66.1478 98.3388 65.2717 102.501 62.0927 104.994C58.0072 101.218 57.4674 95.4308 55.6316 90.4878C55.8232 90.3076 56.2062 89.9462 56.3919 89.7707C58.6544 91.4008 61.4703 91.8669 63.9243 93.1156Z" fill="#5A3F1C" stroke="#5A3F1C" stroke-width="2"/>
<path d="M45.8735 51.6483C46.0555 52.6508 47.9496 62.1051 48.4305 63.6304C48.9262 65.2038 50.8955 73.4089 52.0725 78.1424C52.1162 78.32 52.8638 79.8363 52.9491 80.1726C52.6571 80.0118 51.4159 78.5562 51.1255 78.397C50.4727 76.4142 49.9543 74.3902 49.5738 72.3383C48.5 67.8406 47.1794 63.424 46.4022 58.5114C46.6337 58.7524 45.6367 51.4125 45.8735 51.6483Z" fill="#885D25"/>
<path d="M44.5745 16.7786C45.8188 18.5191 45.2884 21.0029 45.2332 23.0137C44.9512 26.9054 44.7755 30.8024 44.8049 34.7036C44.9812 38.6503 44.6439 42.6274 45.1622 46.5542C45.7215 50.8823 46.517 55.1752 47.3331 59.4582C47.0963 59.2225 46.6333 58.7511 46.4012 58.5107C46.3207 58.2095 46.144 57.603 46.0535 57.3023C44.7269 52.3289 43.9223 47.2319 43.6527 42.0931C43.7047 36.1864 43.4464 30.2629 44.3061 24.408C44.7092 21.9609 45.048 19.2257 44.5745 16.7786Z" fill="#885D25"/>
<path d="M107.311 99.5115C107.688 98.8061 108.036 98.1301 108.315 97.5837L108.561 97.1015L108.175 96.7211C107.813 96.3655 107.446 96.0071 107.091 95.6606C106.597 95.1787 106.087 94.6814 105.589 94.1875C105.063 93.0229 104.468 91.882 103.891 90.7773C103.065 89.1947 102.211 87.5582 101.581 85.8809C99.8067 80.1153 98.6785 74.075 97.5873 68.2331C97.0785 65.509 96.5523 62.6921 95.9666 59.9327C95.7413 58.8604 95.6261 57.7211 95.5147 56.6194C95.2895 54.3908 95.0567 52.0876 93.9209 49.9769C93.6338 48.6996 93.6251 47.3804 93.6159 45.9858C93.607 44.629 93.5977 43.226 93.3127 41.838L93.3098 41.8238L93.3063 41.8097C93.0401 40.7305 93.4815 39.6861 93.9489 38.5803C94.2098 37.9629 94.4797 37.3244 94.6424 36.647L94.7025 36.3967L94.5938 36.1633C94.1779 35.2698 93.5925 34.5132 93.0265 33.7815C92.488 33.0855 91.9791 32.4277 91.6349 31.6885C90.4936 28.5773 89.9725 25.2327 89.4686 21.998C89.0729 19.4581 88.6636 16.8315 87.9567 14.2939C87.609 13.0055 87.5246 11.6765 87.5608 10.1723C90.2407 12.1033 92.6785 14.1571 94.8209 16.2899C95.8643 17.3285 96.8563 18.4046 97.7765 19.4955C97.5368 19.7448 97.2835 20.0061 97.1414 20.1527L96.8905 20.4116L96.9397 20.768C97.3264 23.5683 98.1199 26.2992 98.8202 28.7087C99.4272 30.8486 99.7174 33.1218 99.998 35.3203C100.384 38.346 100.784 41.4746 102.007 44.4115L102.01 44.4193L102.014 44.4269C102.693 45.9585 102.767 47.6684 102.787 49.432L102.79 49.7413L103.013 49.9563L103.969 50.876L104.499 51.3865C103.284 54.9357 104.201 58.4557 105.089 61.8646C105.219 62.3639 105.354 62.88 105.477 63.3822C106.802 70.9625 108.313 79.0868 110.371 87.1444L110.47 87.5327L110.851 87.6626C111.385 87.8448 111.879 88.0112 112.343 88.1656C110.813 92.7966 109.195 96.4466 107.311 99.5115Z" fill="#D88100"/>
<path d="M94.2948 16.8137C92.502 15.0289 90.4983 13.2992 88.3164 11.6515C88.3566 12.5122 88.4639 13.317 88.6743 14.0981C89.3926 16.6767 89.805 19.3241 90.2039 21.8845C90.7235 25.22 91.2145 28.3717 92.3228 31.4043C92.6328 32.0587 93.1107 32.6764 93.616 33.3295C94.207 34.0934 94.8181 34.8833 95.269 35.8518L95.3661 36.8193C95.1892 37.5557 94.9073 38.2226 94.6348 38.8676C94.1984 39.9001 93.8215 40.7918 94.029 41.633L94.0418 41.6896C94.3413 43.1486 94.3508 44.5885 94.36 45.9809C94.3687 47.2987 94.3769 48.5471 94.6263 49.72C95.7887 51.932 96.0257 54.2762 96.2551 56.5452C96.3696 57.6776 96.4777 58.7471 96.6946 59.7796C97.2822 62.5478 97.8092 65.3692 98.3189 68.0977C99.4048 73.9117 100.528 79.9236 102.285 85.6424C102.899 87.2693 103.702 88.8077 104.551 90.4357C105.112 91.5104 105.691 92.619 106.211 93.7585C106.676 94.2189 107.151 94.6822 107.612 95.132C107.881 95.3947 108.158 95.6641 108.433 95.9343C109.486 93.8041 110.462 91.4008 111.402 88.632C111.148 88.5462 110.884 88.4569 110.61 88.3633L109.65 87.327C107.588 79.2541 106.075 71.1215 104.748 63.5338C104.628 63.0441 104.496 62.5392 104.369 62.0505C103.53 58.8314 102.589 55.2174 103.651 51.6008L103.452 51.4085L102.496 50.4888L102.043 49.4403C102.024 47.7567 101.955 46.1293 101.333 44.7261L101.32 44.6953C100.058 41.6666 99.6523 38.4878 99.2599 35.4137C98.9701 33.1431 98.6963 30.9983 98.1048 28.9125C97.3976 26.4793 96.5965 23.7218 96.2026 20.8688L96.606 19.6383C96.6517 19.5912 96.7089 19.5322 96.7734 19.4655C95.9913 18.5644 95.1611 17.6761 94.2948 16.8137ZM95.3471 15.7661C96.549 16.9625 97.6935 18.2156 98.77 19.5286C98.5031 19.8145 97.9539 20.3812 97.6769 20.6671C98.0446 23.3301 98.7852 25.9229 99.5358 28.5057C100.992 33.6362 100.624 39.1578 102.694 44.1278C103.435 45.7978 103.511 47.6283 103.531 49.4237C104.14 50.0105 104.755 50.6023 105.364 51.1891C103.778 55.1961 105.238 59.2885 106.206 63.2303C107.596 71.1843 109.092 79.1333 111.092 86.9618C111.813 87.2076 112.543 87.4533 113.279 87.6941C110.407 96.6209 105.863 106.38 96.5938 110.152C96.9111 109.796 97.5459 109.094 97.8633 108.737C99.2587 107.439 100.846 106.37 102.312 105.162C103.818 103.542 105.158 101.766 106.276 99.8607C106.75 98.9981 107.203 98.1255 107.652 97.2478C106.755 96.3652 105.853 95.4976 104.966 94.6149C103.682 91.7413 101.979 89.0632 100.876 86.1193C98.2562 77.6137 97.0824 68.772 95.2386 60.0859C94.5484 56.801 94.891 53.2703 93.2185 50.2412C92.5837 47.5531 93.1429 44.7095 92.5837 41.9863C92.0951 40.0054 93.4754 38.3203 93.9187 36.4747C93.153 34.8298 91.7021 33.6161 90.9465 31.9711C88.8709 26.3342 88.8407 20.2358 87.2387 14.4885C86.7349 12.6228 86.7652 10.687 86.876 8.78127C89.8919 10.8651 92.7527 13.1834 95.3471 15.7661Z" fill="#D88100"/>
<path d="M111.714 86.3912C109.716 78.5004 108.238 70.5399 106.939 63.1038L106.934 63.0792L106.928 63.055C106.801 62.5351 106.663 62.0055 106.529 61.4932C106.091 59.8099 105.638 58.0693 105.472 56.3725C105.291 54.5172 105.482 52.9107 106.056 51.4612L106.239 51.0009L105.881 50.657L104.965 49.7744L104.27 49.106C104.242 47.2936 104.126 45.5266 103.378 43.837C102.234 41.0859 101.865 38.1947 101.474 35.134C101.187 32.8811 100.889 30.5514 100.252 28.3048L100.251 28.3025L100.25 28.3003C99.594 26.042 98.854 23.4955 98.465 20.9208C98.5484 20.8346 98.6388 20.7411 98.73 20.6465C101.552 24.0964 103.947 27.6087 105.857 31.1004C105.319 32.752 104.898 34.4973 105.51 36.2331C106.176 38.3393 106.582 40.5665 106.975 42.7206C107.401 45.0564 107.841 47.4717 108.616 49.7942C108.716 50.1045 108.821 50.4188 108.923 50.7228C109.526 52.5298 110.096 54.2367 110.016 56.0365L110.016 56.0388L110.016 56.0412C109.871 59.8449 110.801 63.5114 111.7 67.0571C112.174 68.9271 112.664 70.8608 112.982 72.771C113.317 74.9307 113.986 76.9664 114.549 78.5291C114.222 81.2721 113.533 83.9871 112.77 86.7463C112.435 86.6347 112.085 86.5168 111.714 86.3912Z" fill="#D88100"/>
<path d="M99.5961 22.9323C99.9878 24.7312 100.498 26.4866 100.965 28.0944L100.968 28.1034C101.62 30.4032 101.921 32.7607 102.212 35.0406C102.596 38.0481 102.959 40.8888 104.063 43.5463C104.815 45.2514 104.969 47.054 105.008 48.786L105.452 49.2126L106.399 50.1244L106.749 51.7328C105.547 54.7681 106.374 57.9444 107.25 61.3073C107.384 61.822 107.522 62.3542 107.651 62.8792L107.672 62.9768C108.939 70.2249 110.375 77.9713 112.297 85.6577C112.937 83.2913 113.497 80.9559 113.79 78.6135C113.228 77.0433 112.581 75.0316 112.247 72.8881C111.934 71.0095 111.448 69.0924 110.978 67.2383C110.067 63.6419 109.124 59.9231 109.273 56.0131L109.273 56.0037C109.347 54.3405 108.798 52.6967 108.217 50.9564C108.115 50.6519 108.01 50.3372 107.909 50.0245C107.118 47.6534 106.673 45.2129 106.242 42.8528C105.837 40.6272 105.453 38.5245 104.803 36.4665C104.162 34.6335 104.525 32.8574 105.051 31.178C103.527 28.4285 101.699 25.666 99.5961 22.9323ZM98.7699 19.5291C101.757 23.1048 104.452 26.9314 106.664 31.0287C106.13 32.6235 105.626 34.3387 106.216 35.9987C107.621 40.4371 107.848 45.1463 109.324 49.5646C110.004 51.6759 110.86 53.8023 110.76 56.0692C110.543 61.7613 112.795 67.1124 113.717 72.6541C114.024 74.6351 114.624 76.5559 115.309 78.4416C114.951 81.5861 114.13 84.6503 113.279 87.6945C112.543 87.4537 111.813 87.208 111.092 86.9623C109.092 79.1337 107.596 71.1847 106.206 63.2308C105.238 59.2889 103.777 55.1965 105.364 51.1895C104.755 50.6027 104.14 50.0109 103.531 49.4241C103.51 47.6287 103.435 45.7982 102.694 44.1282C100.624 39.1582 100.992 33.6366 99.5356 28.5061C98.785 25.9233 98.0445 23.3305 97.6767 20.6675C97.9538 20.3816 98.5029 19.8149 98.7699 19.5291Z" fill="#D88100"/>
<path d="M90.2686 89.035C91.7364 79.1124 91.3843 68.4128 89.2103 57.1174C88.9424 55.5058 88.7004 53.8554 88.4663 52.2593C87.743 47.327 86.995 42.2268 85.3648 37.3734C82.6427 29.197 79.7607 22.798 76.3065 17.2658C76.7024 14.3062 75.797 11.5556 74.9205 8.89297C74.566 7.81575 74.2016 6.70882 73.9343 5.60785C75.9114 5.36688 77.9815 5.56713 80.0997 6.2055C82.1255 6.81605 84.1459 7.80681 86.1103 9.15241C86.0073 11.1986 86.0509 12.9443 86.5198 14.6809L86.5206 14.6838L86.5214 14.6867C87.2058 17.1419 87.6084 19.7261 87.9977 22.2252C88.5142 25.5409 89.0484 28.9694 90.2475 32.2262L90.2575 32.2532L90.2695 32.2794C90.6845 33.1828 91.2756 33.9468 91.8471 34.6856C92.33 35.3098 92.789 35.903 93.1281 36.5531C92.9899 37.0286 92.7884 37.5055 92.5769 38.0059C92.0631 39.2216 91.481 40.599 91.8571 42.1481C92.1103 43.3898 92.1187 44.6557 92.1275 45.9956C92.137 47.4439 92.1469 48.9416 92.4938 50.4109L92.5171 50.5094L92.5661 50.5982C93.5992 52.4693 93.8103 54.5573 94.0338 56.7679C94.149 57.908 94.2682 59.087 94.51 60.2377C95.0923 62.9808 95.6167 65.7887 96.1239 68.5041C97.224 74.3938 98.3616 80.484 100.164 86.3366L100.171 86.3577L100.178 86.3784C100.804 88.0478 101.622 89.6413 102.426 91.184C102.339 91.098 102.252 91.0117 102.165 90.925C101.544 90.3064 100.906 89.6565 100.27 88.9932L99.6612 88.358L99.1349 89.0627C98.5311 89.8709 97.9101 90.7023 97.2961 91.5313C96.1733 91.0631 95.0264 90.6459 93.9122 90.2405C92.9772 89.9004 92.0104 89.5487 91.0788 89.1739L90.318 88.8679L90.2686 89.035Z" fill="#D88100"/>
<path d="M85.348 9.53345C83.5548 8.34755 81.72 7.46781 79.884 6.9145C78.1695 6.39778 76.4918 6.18187 74.8766 6.26861C75.0976 7.05243 75.3581 7.84378 75.6276 8.66232C76.5047 11.3271 77.4099 14.0775 77.0767 17.0972C80.501 22.6285 83.3662 29.0161 86.0712 37.1411C87.7218 42.0562 88.4746 47.1888 89.2025 52.1523C89.4356 53.7417 89.6766 55.3852 89.9427 56.9869C92.0932 68.164 92.4716 78.7653 91.0802 88.6206L91.3575 88.4872C92.2774 88.8572 93.2382 89.2068 94.1674 89.5448C95.1123 89.8886 96.0806 90.2408 97.0421 90.6267C97.5423 89.9533 98.0441 89.2815 98.5344 88.625L98.5377 88.6207L100.267 88.5149C99.9858 87.9009 99.7204 87.2758 99.4811 86.6374L99.4526 86.5538C97.6377 80.6609 96.4962 74.5497 95.3923 68.6396C94.8859 65.9286 94.3623 63.1252 93.7816 60.3894C93.5317 59.2003 93.4105 58.0014 93.2934 56.8421C93.0777 54.7088 92.874 52.6938 91.914 50.955L91.7694 50.5804C91.4033 49.0299 91.3932 47.4898 91.3833 46.0005C91.3748 44.7024 91.3667 43.4757 91.1304 42.3082C90.7032 40.5288 91.334 39.0364 91.891 37.7187C92.0497 37.3431 92.2025 36.9815 92.3222 36.6331C92.0276 36.1329 91.6509 35.6461 91.2576 35.1377C90.6605 34.3659 90.0431 33.5678 89.5927 32.5875L89.5488 32.4812C88.3243 29.1555 87.7844 25.6901 87.2623 22.3388C86.8763 19.8607 86.4771 17.2983 85.8043 14.8848L85.8012 14.8732C85.3216 13.0971 85.2772 11.275 85.348 9.53345ZM86.8756 8.78146C86.7648 10.6872 86.7346 12.623 87.2383 14.4887C88.8403 20.236 88.8705 26.3344 90.9461 31.9713C91.7017 33.6163 93.1526 34.83 93.9183 36.4749C93.475 38.3205 92.0947 40.0056 92.5833 41.9865C93.1425 44.7097 92.5833 47.5533 93.2181 50.2414C94.8906 53.2705 94.5481 56.8012 95.2382 60.0861C97.082 68.7722 98.2558 77.6139 100.875 86.1195C101.979 89.0634 103.681 91.7415 104.966 94.6151C103.831 93.5857 102.723 92.5286 101.639 91.4489C100.995 90.8084 100.36 90.1601 99.7319 89.5047C99.0014 90.4826 98.2709 91.4606 97.5455 92.4436C95.339 91.4807 93.0317 90.7585 90.8 89.8608C90.2156 91.8367 89.8126 93.8628 89.4751 95.894L89.3743 96.3353C89.0066 96.4908 88.2761 96.7866 87.9033 96.9371C91.2836 84.0132 90.9914 70.3018 88.4776 57.2475C87.3844 50.6727 86.795 43.9675 84.659 37.6083C82.3265 30.6022 79.4802 23.6964 75.5307 17.4275C76.2309 13.0794 73.8581 9.14255 73.037 4.99506C77.9689 4.09735 82.9009 5.96798 86.8756 8.78146Z" fill="#D88100"/>
<path d="M114.991 75.0359C114.775 74.2377 114.585 73.397 114.452 72.5407L114.451 72.5367L114.451 72.5327C114.123 70.5605 113.624 68.5949 113.142 66.6941C112.269 63.2504 111.367 59.6894 111.503 56.0988C111.594 54.0267 110.954 52.1094 110.335 50.255C110.234 49.9536 110.13 49.642 110.032 49.338L110.031 49.3342L110.03 49.3304C109.287 47.1063 108.856 44.742 108.439 42.4555C108.037 40.2524 107.621 37.9742 106.925 35.7756L106.921 35.7635L106.917 35.7514C106.603 34.8684 106.656 33.9406 106.868 32.9852C108.688 36.4889 110.244 40.1607 111.502 43.9236C112.95 48.2519 114.012 52.73 114.661 57.2332L114.771 58.1568C114.851 58.8166 114.925 59.4721 114.987 60.027C115.164 61.8609 115.263 63.7437 115.358 65.5645C115.386 66.0975 115.415 66.6484 115.446 67.1915C115.435 69.7038 115.282 72.3311 114.991 75.0359Z" fill="#D88100"/>
<path d="M108.141 37.335C108.565 39.0031 108.872 40.6837 109.171 42.3232C109.602 44.6884 110.009 46.9223 110.736 49.0967L110.741 49.1118C110.838 49.412 110.941 49.7218 111.041 50.0213C111.681 51.9387 112.343 53.9213 112.246 56.1289C112.115 59.6126 112.964 62.9642 113.864 66.5128C114.129 67.5598 114.4 68.6263 114.645 69.7051C114.679 68.862 114.698 68.0301 114.702 67.2105C114.672 66.6734 114.643 66.1297 114.615 65.6034C114.52 63.7921 114.422 61.9195 114.246 60.1032C114.185 59.551 114.111 58.8998 114.032 58.2438L113.923 57.329C113.281 52.8724 112.229 48.4411 110.796 44.1575C110.022 41.8423 109.134 39.562 108.141 37.335ZM106.664 31.0283C111.117 39.1127 114.084 48.0045 115.399 57.137L115.51 58.0698C115.586 58.6967 115.656 59.3186 115.727 59.9505C115.958 62.3477 116.054 64.76 116.19 67.1722C116.175 70.9386 115.853 74.71 115.309 78.4412C114.623 76.5555 114.024 74.6347 113.717 72.6538C112.795 67.1121 110.543 61.7609 110.759 56.0688C110.86 53.8019 110.004 51.6755 109.324 49.5642C107.848 45.1459 107.621 40.4367 106.215 35.9983C105.626 34.3383 106.13 32.6231 106.664 31.0283Z" fill="#D88100"/>
<path d="M67.016 8.7131C68.5802 7.72354 70.3882 6.94615 72.084 6.21698C72.2275 6.15528 72.3684 6.0947 72.5073 6.03478C72.7852 7.16279 73.1507 8.27301 73.5066 9.35418C74.1678 11.363 74.8017 13.2889 74.9018 15.2613C74.0318 14.0622 73.1097 12.8771 72.0509 11.823C70.4603 10.2396 68.8111 9.22042 67.016 8.7131Z" fill="#D88100"/>
<path d="M68.7589 8.56728C70.0934 9.17841 71.3544 10.082 72.5771 11.2992C72.9667 11.6871 73.3371 12.0903 73.6926 12.504C73.4444 11.544 73.1254 10.5748 72.7995 9.58482C72.5276 8.75871 72.2502 7.91588 72.0083 7.05653C70.9273 7.52243 69.8111 8.01286 68.7589 8.56728ZM62.7007 12.2497C64.4236 8.35795 69.3699 6.61979 73.0373 4.9949C73.8585 9.14239 76.2312 13.0793 75.531 17.4273C74.316 15.7118 73.0505 13.8656 71.5248 12.3468C70.1469 10.9751 68.5571 9.87023 66.5991 9.36807C65.0677 9.74921 63.5268 10.9215 62.7007 12.2497Z" fill="#D88100"/>
<path d="M98.8853 92.7449C98.7634 92.6235 98.641 92.5007 98.5189 92.3771C98.9467 91.7996 99.3782 91.2205 99.8048 90.649C100.244 91.1011 100.682 91.5443 101.113 91.9728C102.232 93.0865 103.355 94.1558 104.452 95.1512C104.982 95.6782 105.525 96.2077 106.05 96.7198C106.277 96.9413 106.509 97.1677 106.741 97.3947C106.523 97.818 106.277 98.2903 106.018 98.7768C103.543 97.0226 101.147 94.9963 98.8853 92.7449Z" fill="#D88100"/>
<path d="M105.828 97.5409C105.728 97.4427 105.628 97.3452 105.529 97.2485C105.006 96.7392 104.467 96.2127 103.939 95.6872C102.837 94.6875 101.709 93.6142 100.587 92.4966C100.354 92.2645 100.118 92.0282 99.8818 91.7885C99.7535 91.9607 99.6251 92.1333 99.4968 92.306C101.493 94.2848 103.593 96.0853 105.758 97.675C105.782 97.63 105.805 97.5853 105.828 97.5409ZM107.651 97.2482C107.203 98.1258 106.75 98.9985 106.276 99.8611C103.432 97.9134 100.795 95.6939 98.3591 93.2687C98.0854 92.9962 97.8144 92.7213 97.5457 92.4437C98.2711 91.4607 99.0016 90.4828 99.7321 89.5048C100.36 90.1601 100.996 90.8087 101.639 91.449C102.724 92.5288 103.831 93.5858 104.966 94.6153C105.853 95.4979 106.755 96.3655 107.651 97.2482Z" fill="#D88100"/>
<path d="M90.2859 95.5595C90.6019 93.7172 90.9217 92.2191 91.2926 90.8505C91.998 91.1216 92.7082 91.38 93.4011 91.632C94.6305 92.0793 95.9003 92.5413 97.1127 93.0639C97.351 93.3089 97.5926 93.5534 97.8326 93.7923C100.191 96.1399 102.693 98.2501 105.28 100.072C104.396 101.497 103.369 102.869 102.216 104.164C98.3485 101.276 94.3548 98.4444 90.4867 95.7019L90.2859 95.5595Z" fill="#D88100"/>
<path d="M104.275 100.266C101.858 98.5159 99.5191 96.5189 97.3064 94.3161C97.0985 94.1091 96.8893 93.898 96.6821 93.6858C95.5296 93.1951 94.3191 92.7546 93.1457 92.3278C92.7043 92.1672 92.2559 92.0041 91.8056 91.8365C91.5547 92.8506 91.3251 93.9539 91.0991 95.2267C94.7298 97.8009 98.4671 100.453 102.107 103.157C102.898 102.228 103.623 101.261 104.275 100.266ZM106.276 99.8609C105.157 101.767 103.817 103.542 102.311 105.162C98.0944 101.997 93.7821 98.9481 89.4749 95.8939C89.8124 93.8628 90.2154 91.8367 90.7998 89.8607C93.0315 90.7585 95.3388 91.4806 97.5453 92.4435C97.8138 92.721 98.0851 92.9962 98.3587 93.2685C100.795 95.6939 103.431 97.9131 106.276 99.8609Z" fill="#D88100"/>
<path d="M88.0216 102.606C88.0542 102.53 88.0867 102.453 88.1188 102.377C88.8267 100.708 89.5561 98.9873 89.9686 97.153C93.6465 99.7607 97.4312 102.448 101.099 105.182C100.781 105.431 100.459 105.676 100.144 105.917C99.3542 106.521 98.5419 107.141 97.7725 107.818C97.533 107.663 97.2935 107.507 97.0536 107.351C94.2375 105.518 91.333 103.627 88.0216 102.606Z" fill="#D88100"/>
<path d="M99.8699 105.193C96.7481 102.882 93.5522 100.605 90.4195 98.3823C90.0399 99.693 89.5329 100.94 89.0199 102.156C92.1032 103.244 94.8204 105.013 97.4608 106.731C97.5439 106.785 97.6269 106.839 97.7099 106.893C98.3643 106.343 99.0352 105.83 99.6908 105.33C99.7508 105.284 99.8106 105.238 99.8699 105.193ZM102.311 105.162C100.845 106.37 99.2583 107.438 97.8629 108.737L97.4397 108.487C94.1551 106.36 90.8605 104.083 87.0116 103.09C87.9285 100.884 88.9562 98.7071 89.3743 96.335L89.4751 95.8937C93.7823 98.9479 98.0946 101.997 102.311 105.162Z" fill="#D88100"/>
<path d="M87.1522 104.96C87.2606 104.648 87.3806 104.3 87.4867 103.993C90.4803 104.899 93.1931 106.612 95.8169 108.317C94.9555 108.651 94.1254 108.968 93.2776 109.231C93.1785 108.884 93.0743 108.523 93.0056 108.289L92.9158 107.984L92.6314 107.838C90.7148 106.858 88.8142 105.849 87.1522 104.96Z" fill="#D88100"/>
<path d="M93.7794 108.286C93.9123 108.239 94.0452 108.192 94.1784 108.144C93.8977 107.966 93.6157 107.789 93.3323 107.614L93.7197 108.081C93.7374 108.142 93.7576 108.21 93.7794 108.286ZM86.2411 105.313C86.4376 104.756 86.8205 103.643 87.0119 103.091C90.8607 104.084 94.1554 106.361 97.44 108.487C95.8883 109.069 94.367 109.721 92.765 110.152C92.6491 109.736 92.4123 108.908 92.2914 108.497C90.2612 107.459 88.2512 106.391 86.2411 105.313Z" fill="#D88100"/>
<path d="M87.3968 108.656C86.8707 108.132 86.8258 107.335 86.8816 106.497C88.3584 107.286 90.0009 108.155 91.6658 109.01C91.7099 109.162 91.7592 109.333 91.8085 109.506C90.2141 109.653 88.546 109.667 87.4041 108.663L87.3968 108.656Z" fill="#D88100"/>
<path d="M89.6477 108.799C88.986 108.453 88.3357 108.11 87.7068 107.776C87.7544 107.912 87.8216 108.028 87.9133 108.122C88.3823 108.527 88.9804 108.723 89.6477 108.799ZM92.2912 108.497C92.4122 108.908 92.6489 109.736 92.7648 110.152C90.8001 110.363 88.4978 110.629 86.8959 109.204C86.8874 109.196 86.879 109.188 86.8707 109.18C85.8426 108.156 86.131 106.606 86.2409 105.313C88.251 106.391 90.2611 107.459 92.2912 108.497Z" fill="#D88100"/>
<path d="M86.2177 109.822C86.1377 109.65 86.0669 109.477 86.005 109.304C86.1033 109.442 86.2159 109.575 86.3447 109.703C86.3556 109.714 86.3664 109.725 86.3775 109.736L86.3887 109.747L86.4004 109.757C86.5351 109.877 86.6737 109.986 86.8154 110.086C86.614 110.007 86.4146 109.919 86.2177 109.822Z" fill="#D88100"/>
<path d="M89.3745 96.3356C88.9564 98.7078 87.9287 100.884 87.0118 103.091C86.8204 103.643 86.4375 104.756 86.2411 105.313C86.1311 106.606 85.8428 108.156 86.8708 109.18C86.8791 109.188 86.8874 109.196 86.896 109.204C88.498 110.629 90.8002 110.363 92.7649 110.152C94.3669 109.721 95.8883 109.069 97.4399 108.487L97.8631 108.738C97.5457 109.094 96.911 109.796 96.5936 110.152C93.173 111.461 89.042 112.163 85.6567 110.368C83.3645 105.869 86.9463 101.321 87.9035 96.9374C88.2763 96.787 89.0068 96.4911 89.3745 96.3356Z" fill="#D88100"/>
<path d="M35.5207 21.1382C36.6138 19.8583 37.9711 18.828 39.5003 18.1175C41.0295 17.4071 42.6946 17.0332 44.3821 17.0213C44.7953 19.4689 44.7696 21.97 44.3063 24.4087C41.4146 23.225 38.7197 21.3844 35.5207 21.1382Z" fill="#D88100" stroke="#D88100" stroke-width="2" stroke-linejoin="round"/>
<path d="M35.5205 21.1385C38.72 21.3842 41.415 23.2247 44.3067 24.4085C43.4454 30.2608 43.7074 36.189 43.6532 42.0905C42.8877 39.8439 42.0158 37.2308 39.6782 36.1575C37.7135 35.2043 35.7941 34.1462 33.7843 33.3092C31.8801 32.9284 29.9155 33.139 27.9961 32.8331C29.9941 28.632 32.5227 24.702 35.5205 21.1385V21.1385Z" fill="#D88100" stroke="#D88100" stroke-width="2"/>
<path d="M39.6767 36.1591C42.0159 37.2308 42.8856 39.845 43.6517 42.092C43.9214 47.2308 44.726 52.3278 46.0525 57.3012C43.2113 57.5222 42.309 60.2852 41.695 62.6124C39.0048 63.7359 36.3046 64.8191 33.5639 65.8023C32.3548 58.2597 32.9383 50.6004 33.002 43.0008C32.9167 40.4185 33.757 39.1232 34.1148 37.1622C32.0707 41.2032 30.9963 45.6323 30.175 50.0609C29.1682 55.2215 28.5788 60.4541 28.4124 65.7085C26.5582 65.829 24.6594 66.215 22.8157 65.8138C21.3985 64.8756 20.0698 63.8113 18.846 62.6339C20.091 52.2381 23.1889 42.1468 27.9941 32.8341C29.9135 33.14 31.8781 32.9294 33.7822 33.3102C35.7926 34.1478 37.712 35.2069 39.6767 36.1591Z" fill="#D88100" stroke="#D88100" stroke-width="2"/>
<path d="M46.0542 57.3024C46.1452 57.6025 46.321 58.2101 46.402 58.5108C46.8997 60.6604 47.8531 65.8029 47.8531 65.8029C48.642 67.9189 49.2175 70.1077 49.571 72.3371C46.7398 74.2935 44.0296 76.5903 40.5381 77.2775L40.3571 79.8954C38.8407 79.2385 37.3349 78.5513 35.818 77.8845C34.8436 73.9019 34.0918 69.8685 33.5661 65.8029C36.3063 64.8203 39.0075 63.7381 41.6967 62.6136C42.3112 60.2869 43.213 57.5234 46.0542 57.3024Z" fill="#D88100" stroke="#D88100" stroke-width="2"/>
<path d="M49.5708 72.3381C49.9512 74.3899 50.4696 76.414 51.1224 78.3967C51.3613 79.2065 51.5917 80.0162 51.8127 80.8292C48.6895 85.2122 42.7903 84.746 38.5838 87.509C37.5267 84.3375 36.6339 81.1146 35.8178 77.8844C37.3321 78.5538 38.8405 79.2384 40.3569 79.8952L40.5374 77.2779C44.0289 76.5907 46.7391 74.2939 49.5708 72.3381Z" fill="#D88100" stroke="#D88100" stroke-width="2"/>
<path d="M51.8125 80.8283C52.4218 83.0397 53.0026 85.2606 53.6261 87.4683C50.4371 91.3051 45.2183 91.887 40.8855 93.8025C40.0641 91.7215 39.3012 89.618 38.5809 87.5066C42.7901 84.7452 48.6893 85.2114 51.8125 80.8283Z" fill="#D88100" stroke="#D88100" stroke-width="2"/>
<path d="M63.3861 105.728C60.5502 110.515 56.6588 110.829 51.4294 108.252C45.8575 105.382 43.0774 99.3443 40.8855 93.8026C45.2178 91.8866 50.4371 91.3052 53.6261 87.4685C55.374 92.9201 56.5126 98.6974 59.601 103.607C59.9196 104.131 60.3403 104.587 60.8383 104.946C61.3362 105.306 61.9014 105.563 62.5006 105.702C62.8147 106.801 63.6513 105.54 63.7381 105.329L63.3861 105.728ZM43.5809 95.8941C43.8682 97.0328 43.8329 98.3816 44.6895 99.2951C46.3574 103.091 49.2233 106.657 53.4762 107.623C54.4169 108.141 55.4561 107.739 56.4284 107.543C52.3665 103.417 48.0037 99.6151 43.5809 95.8941Z" fill="#D88100" stroke="#D88100" stroke-width="2"/>
<path d="M28.4127 65.7076C28.3006 67.4062 28.2701 68.767 28.1669 71.5954C28.0638 74.4239 28.0449 74.8597 27.9996 77.0219C25.8535 77.2623 23.5011 77.0669 21.7832 78.6367C20.7548 78.0542 19.7296 77.4685 18.7079 76.8794C18.2803 72.1379 18.3265 67.3659 18.8457 62.6335C20.0696 63.8109 21.3983 64.8752 22.8155 65.8134C24.6596 66.2141 26.5585 65.828 28.4127 65.7076Z" fill="#D88100" stroke="#D88100" stroke-width="2"/>
<path d="M27.9993 77.022C28.092 80.9789 28.5167 84.9212 29.2689 88.8077C26.2967 89.0586 23.5759 87.4836 20.6143 87.4338C20.559 87.228 20.4427 86.8021 20.3828 86.5916C19.6142 83.3944 19.0553 80.151 18.7096 76.8816C19.7331 77.469 20.7583 78.0547 21.7849 78.6389C23.5007 77.067 25.8531 77.2624 27.9993 77.022Z" fill="#D88100" stroke="#D88100" stroke-width="2"/>
<path d="M43.5805 95.8945C48.0043 99.6155 52.3666 103.417 56.4269 107.539C55.4546 107.735 54.417 108.136 53.4747 107.619C50.5683 104.816 47.6992 101.975 44.688 99.2913C43.833 98.3814 43.8683 97.0327 43.5805 95.8945Z" fill="#D88100" stroke="#D88100" stroke-width="2"/>
<path d="M44.6907 99.2931C47.6997 101.974 50.5688 104.816 53.4773 107.621C49.2234 106.656 46.357 103.091 44.6907 99.2931Z" fill="#D88100" stroke="#D88100" stroke-width="2"/>
<path d="M20.614 87.4333C23.5762 87.4836 26.2964 89.0581 29.2686 88.8072C29.5764 90.4074 29.9168 92.0002 30.3066 93.5815C27.8777 93.0969 25.3655 93.2277 23.0006 93.9618C22.3624 92.5439 21.833 91.0741 21.289 89.6201C21.1227 89.0733 20.785 87.9849 20.614 87.4333Z" fill="#D88100" stroke="#D88100" stroke-width="2"/>
<path d="M23.0019 93.9629C25.3664 93.2286 27.8783 93.0975 30.3069 93.5816C30.811 95.748 31.5818 97.8394 32.2463 99.9561C30.5437 99.5349 28.8258 99.1583 27.098 98.8629C28.3575 100.491 30.0039 101.782 31.8891 102.62L31.8638 102.845C27.5962 101.626 24.7956 97.7944 23.0019 93.9629Z" fill="#D88100" stroke="#D88100" stroke-width="2"/>
<path d="M27.0976 98.8627C28.8254 99.1591 30.8048 95.1228 32.4522 100.009C32.6265 100.548 32.8463 101.071 33.1093 101.573C33.3966 102.173 33.7959 102.82 32.4522 103.135C31.1084 103.451 28.3772 100.478 27.0976 98.8627Z" fill="#D88100" stroke="#D88100" stroke-width="2" stroke-linejoin="round"/>
<path d="M136.867 110.089C134.902 110.161 132.947 109.777 131.157 108.967C129.367 108.157 127.791 106.943 126.554 105.422C123.984 102.311 122.7 98.2319 122.7 93.185C122.685 87.7142 124.008 82.322 126.554 77.4738C128.952 72.729 132.474 68.636 136.815 65.5478C140.753 62.65 145.512 61.0706 150.409 61.0367C151.937 61.0367 152.961 61.3305 153.482 61.9181C154.157 62.8577 154.603 63.9406 154.785 65.0811C156.296 64.7997 157.831 64.6609 159.368 64.6663C162.771 64.6663 164.472 65.8762 164.472 68.296C164.472 69.7478 163.952 73.2046 162.91 78.6664C161.313 86.6171 160.514 92.148 160.514 95.2591C160.468 96.1549 160.745 97.0376 161.295 97.748C161.539 98.0488 161.849 98.2895 162.201 98.4514C162.554 98.6133 162.939 98.692 163.327 98.6813C164.646 98.6813 166.243 97.8344 168.119 96.1406C170.825 93.5545 173.365 90.8009 175.723 87.8961C176.052 87.4596 176.476 87.1024 176.963 86.8511C177.45 86.5998 177.988 86.4607 178.536 86.4442C178.971 86.4398 179.4 86.5532 179.776 86.7724C180.152 86.9915 180.462 87.3082 180.671 87.6887C181.245 88.7353 181.516 89.9201 181.452 91.1109C181.452 93.8764 180.793 96.0196 179.473 97.5406C176.827 100.869 173.784 103.864 170.41 106.459C167.216 108.879 164.125 110.089 161.139 110.089C158.826 110.081 156.592 109.254 154.837 107.755C152.834 106.065 151.339 103.859 150.513 101.378C146.902 107.185 142.353 110.089 136.867 110.089ZM140.617 99.6147C142.145 99.6147 143.603 98.7159 144.992 96.9184C146.525 94.7887 147.558 92.3432 148.013 89.7628L151.868 70.6812C148.872 70.7811 146.01 71.9391 143.794 73.9478C141.203 76.2333 139.187 79.0929 137.909 82.296C136.445 85.7769 135.701 89.5154 135.721 93.2887C135.721 95.4319 136.155 97.0221 137.023 98.0591C137.462 98.5757 138.015 98.9848 138.638 99.2545C139.261 99.5243 139.938 99.6475 140.617 99.6147V99.6147ZM228.017 86.4442C228.453 86.4398 228.882 86.5532 229.258 86.7724C229.634 86.9915 229.943 87.3082 230.153 87.6887C230.727 88.7353 230.997 89.9201 230.934 91.1109C230.934 93.8764 230.274 96.0196 228.955 97.5406C226.055 100.936 222.749 103.966 219.111 106.563C215.742 108.914 211.714 110.148 207.6 110.089C203.988 110.089 201.453 108.983 199.995 106.77C198.537 104.558 197.807 101.239 197.807 96.8147C197.836 94.559 198.01 92.3074 198.328 90.0739C192.217 90.0739 187.981 90.0047 185.619 89.8665C185.48 91.8023 185.411 93.1504 185.411 93.9109V96.0887C185.342 100.375 185.237 103.383 185.099 105.111C185.089 106.472 184.652 107.795 183.848 108.896C183.154 109.691 182.008 110.089 180.411 110.089C177.772 110.089 175.914 108.706 174.838 105.941C173.761 103.175 173.223 98.7505 173.223 92.6665C173.177 83.9817 174.477 75.3417 177.077 67.0515C177.541 65.2781 178.608 63.7202 180.098 62.6441C181.487 61.7107 183.501 61.2441 186.14 61.2441C187.141 61.1657 188.145 61.3443 189.057 61.7626C189.357 61.9895 189.592 62.291 189.738 62.6368C189.885 62.9826 189.937 63.3606 189.89 63.733C189.89 64.8392 189.37 67.3281 188.328 71.1997C187.772 73.4812 187.251 76.2466 186.765 79.496H200.099C200.794 76.2466 201.801 72.0985 203.12 67.0515C203.467 65.3304 204.362 63.7665 205.672 62.5922C206.818 61.6935 208.537 61.2441 210.829 61.2441C211.97 61.1551 213.116 61.3512 214.162 61.8144C214.495 62.0533 214.757 62.3764 214.922 62.7502C215.087 63.124 215.149 63.535 215.1 63.9404C215.1 65.6688 214.232 70.4046 212.496 78.1479C210.551 86.9973 209.579 92.4591 209.579 94.5332C209.513 95.6163 209.805 96.6911 210.412 97.5924C210.66 97.9373 210.989 98.2168 211.371 98.4065C211.752 98.5963 212.174 98.6906 212.6 98.6813C213.989 98.6813 215.638 97.8344 217.548 96.1406C220.284 93.5671 222.842 90.8127 225.205 87.8961C225.534 87.4596 225.958 87.1024 226.445 86.8511C226.932 86.5998 227.469 86.4607 228.017 86.4442V86.4442ZM238.226 60.3107C243.435 60.3107 247.376 61.2268 250.05 63.0589C251.348 63.9257 252.399 65.1114 253.101 66.5013C253.804 67.8911 254.134 69.4381 254.06 70.9923C254.153 73.6072 253.503 76.1951 252.185 78.459C251.047 80.3458 249.52 81.9715 247.706 83.2294C245.535 84.653 243.273 85.9348 240.935 87.0664C238.628 88.1727 236.431 89.4921 234.372 91.0072C233.696 91.534 233.154 92.2127 232.792 92.9878C232.43 93.7629 232.257 94.6123 232.288 95.4665C232.232 96.1045 232.358 96.7455 232.653 97.3147C232.948 97.8838 233.4 98.3578 233.955 98.6813C235.066 99.3036 237.011 99.6147 239.789 99.6147C244.054 99.5734 248.249 98.5249 252.029 96.5554C256.185 94.4413 259.856 91.4929 262.811 87.8961C263.129 87.4485 263.551 87.0833 264.04 86.8308C264.529 86.5782 265.072 86.4457 265.623 86.4442C266.059 86.4398 266.488 86.5532 266.864 86.7724C267.24 86.9915 267.549 87.3082 267.759 87.6887C268.333 88.7353 268.603 89.9201 268.54 91.1109C268.62 93.414 267.923 95.6775 266.561 97.5406C263.378 101.841 259.196 105.31 254.373 107.652C249.397 110.009 243.944 111.197 238.434 111.126C232.323 111.126 227.601 110.072 224.267 107.963C220.934 105.854 219.267 102.449 219.267 97.748C219.188 95.0786 219.855 92.44 221.194 90.1257C222.398 88.1064 223.991 86.3442 225.882 84.9405C228.083 83.3719 230.399 81.968 232.809 80.7405C235.026 79.6291 237.121 78.291 239.06 76.7479C239.677 76.2563 240.175 75.633 240.517 74.924C240.86 74.2149 241.038 73.4383 241.039 72.6515C241.049 72.2288 240.949 71.8107 240.748 71.438C240.547 71.0654 240.252 70.751 239.893 70.5256C238.883 69.9447 237.723 69.6741 236.559 69.7478C235.354 69.729 234.155 69.9221 233.018 70.3182C231.832 70.7653 230.683 71.3027 229.58 71.9256C228.885 72.2713 228.174 72.5997 227.444 72.9108C226.806 73.2016 226.115 73.3604 225.413 73.3775C224.835 73.4089 224.258 73.3084 223.726 73.0837C223.193 72.859 222.719 72.5161 222.34 72.0812C221.58 71.1254 221.191 69.9287 221.246 68.7108C221.259 67.7651 221.503 66.8367 221.957 66.0057C222.411 65.1747 223.06 64.4659 223.85 63.9404C225.715 62.6959 227.801 61.816 229.997 61.3478C232.685 60.6589 235.45 60.3105 238.226 60.3107V60.3107ZM299.167 90.9035C297.847 96.7109 295.243 101.36 291.354 104.852C287.78 108.219 283.045 110.093 278.124 110.089C274.339 110.198 270.612 109.149 267.446 107.081C264.507 105.091 262.181 102.326 260.727 99.0961C259.185 95.7097 258.403 92.0291 258.435 88.3109C258.348 83.4584 259.381 78.6506 261.456 74.259C263.296 70.3461 266.179 67.0104 269.79 64.6145C273.278 62.3142 277.378 61.1044 281.562 61.1404C286.84 61.1404 291.093 62.9552 294.323 66.5848C297.607 70.3428 299.597 75.0492 300 80.0145C299.68 83.6442 300.331 84.1072 299.167 90.9035V90.9035ZM278.957 99.0961C280.06 99.0941 281.149 98.8517 282.148 98.3859C283.147 97.9201 284.031 97.2422 284.739 96.3998C286.371 94.602 287.436 92.2776 288.426 88.8294C289.668 84.4998 289.166 78.476 288.02 76.1256C286.874 73.7753 285.635 72.7182 281.145 72.133C278.367 72.133 276.058 73.4639 274.218 76.1256C272.377 78.7874 271.457 82.538 271.457 87.3776C271.457 91.18 272.204 94.0838 273.697 96.0887C275.19 98.0937 276.943 99.0961 278.957 99.0961Z" fill="#505050"/>
</svg>
