<svg xmlns="http://www.w3.org/2000/svg" width="255.54" height="85.687" viewBox="0 0 255.54 85.687"><g transform="translate(-239.604 -441.634)"><path d="M69.46-41.561V-87.076l.5-9.635h-.166q-1.246,3.281-2.326,5.648l-22.8,49.5H43.089L20.165-90.814a34.135,34.135,0,0,1-2.076-6.063h-.249q.332,3.405.332,8.763v46.554H13.6v-64.328h4.444L41.8-54.435q.623,1.412,2.076,5.482h.249q1.578-4.734,2.035-5.648l23.505-51.288H73.9v64.328Zm47.426,0v-9.095h-.166a18.335,18.335,0,0,1-6.478,7.5,16.331,16.331,0,0,1-9.136,2.72q-6.437,0-10.341-3.634a12.168,12.168,0,0,1-3.9-9.323q0-12.209,15.906-14.577l14.12-2.118q0-14.618-11.047-14.618-7.6,0-14.784,6.063v-5.108A22.556,22.556,0,0,1,98.094-87.3a26.931,26.931,0,0,1,8.16-1.308q7.226,0,11.088,4.381T121.2-71.42v29.859Zm-25.5-12.085A8.724,8.724,0,0,0,94.169-46.9a10.564,10.564,0,0,0,7.434,2.554,14.259,14.259,0,0,0,7.787-2.222,15.184,15.184,0,0,0,5.5-6.229,19.723,19.723,0,0,0,1.993-8.908v-4.485L104.344-64.4q-7.1,1-10.029,3.488T91.387-53.646ZM166.18-41.561V-63.446H139.27v21.886h-4.319V-87.491h4.319V-67.35H166.18V-87.491h4.236v45.931Zm23.3-42.027v42.027h-4.319V-87.491h22.592v3.9Z" transform="translate(228 565.761)" fill="#3d3d3d" stroke="#3d3d3d" stroke-width="4"/><path d="M16.419-72.5v39.427H27.956v3.4H12.1V-75.605H27.956v3.1Z" transform="translate(433.32 553.875)" fill="#f59b00" stroke="#f59b00" stroke-width="4"/><path d="M23.637-72.5v39.427H12.1v3.4H27.956V-75.605H12.1v3.1Z" transform="translate(460.05 553.875)" fill="#f59b00" stroke="#f59b00" stroke-width="4"/><g transform="matrix(0.719, -0.695, 0.695, 0.719, 459.546, 465.119)"><path d="M25.439,4.115,15.056,0,4.783,2.184,0,7.137,5.209,10.2l9.333,1.412,6.4-2.833Z" transform="translate(3.075 3.364)" fill="#a4db69"/><path d="M0,7.2C8.162-3.029,22.524-1.511,30.5,6.44a1.314,1.314,0,0,1,0,1.857,20.861,20.861,0,0,1-14.854,6.154,18.54,18.54,0,0,1-9.843-2.288A14.029,14.029,0,0,1,0,7.2Zm15.648,4.62a18.236,18.236,0,0,0,12-4.456,18.419,18.419,0,0,0-24,0A18.242,18.242,0,0,0,15.648,11.825Z" transform="translate(0 4.299) rotate(-8)" fill="#3d3d3d" stroke="#3d3d3d" stroke-width="3"/></g></g></svg>