<svg width="30" height="30" viewBox="0 0 30 30" fill="none" xmlns="http://www.w3.org/2000/svg">
<g clip-path="url(#clip0)">
<path d="M11.4239 0.0506099C13.0958 -0.136304 14.8281 0.197984 16.2788 0.99596C17.9596 1.90896 19.2508 3.42464 19.8128 5.16197C20.4237 7.00595 20.2051 9.07637 19.2084 10.7694C18.2438 12.4384 16.5553 13.7288 14.6069 14.2728C12.9556 14.7485 11.1372 14.679 9.52445 14.1051C7.66226 13.4473 6.09714 12.0969 5.24835 10.4183C4.3134 8.5995 4.24781 6.41525 5.06959 4.54851C6.10357 2.12223 8.63322 0.321395 11.4239 0.0506099Z" fill="#4801FF"/>
<path d="M22.4955 10.7215C22.7257 10.6232 22.9855 10.634 23.2324 10.6256C25.0316 10.6328 26.832 10.6316 28.6312 10.6268C28.9051 10.634 29.2009 10.628 29.4414 10.7706C30.1989 11.1684 30.1989 12.3534 29.4414 12.75C29.1997 12.8925 28.9051 12.8901 28.6299 12.8961C26.8295 12.8913 25.029 12.8913 23.2273 12.8973C22.9212 12.8925 22.5894 12.8913 22.3322 12.714C21.6004 12.2647 21.6737 11.051 22.4955 10.7215Z" fill="#4801FF"/>
<path d="M24.3088 15.1918C25.573 15.1103 26.8462 15.1846 28.113 15.157C28.5592 15.175 29.0531 15.0828 29.4569 15.3092C30.1783 15.7034 30.1989 16.8297 29.4929 17.249C29.2087 17.4384 28.8434 17.4192 28.5129 17.4264C27.2655 17.418 26.0193 17.4228 24.7744 17.4252C24.4503 17.4276 24.1018 17.3844 23.8561 17.1688C23.172 16.632 23.3906 15.3799 24.3088 15.1918Z" fill="#4801FF"/>
<path d="M11.4484 15.4123C14.1838 15.2229 16.9629 15.9718 19.2097 17.4288C21.9091 19.1805 23.9462 21.9003 24.512 24.9424C24.6638 25.883 24.7962 26.9338 24.2175 27.7797C23.5513 28.755 22.3103 29.1851 21.1593 29.4523C18.8894 29.9388 16.5437 29.9544 14.2262 29.9927C11.5654 29.9999 8.89943 30.0358 6.24504 29.8429C4.90369 29.7315 3.5482 29.5733 2.28273 29.1252C1.47767 28.8341 0.681605 28.3716 0.285503 27.6299C-0.0501551 27.0296 -0.0218617 26.3287 0.0347243 25.6733C0.308652 22.6935 1.95993 19.8682 4.42785 17.9679C6.39422 16.4403 8.90072 15.5656 11.4484 15.4123Z" fill="#4801FF"/>
<path d="M26.081 19.7005C27.061 19.6765 28.0448 19.6741 29.0248 19.7017C30.0189 19.7772 30.3339 21.1083 29.6279 21.681C29.1855 22.0693 28.5335 21.9291 27.9843 21.953C27.2462 21.9063 26.4758 22.0573 25.7595 21.856C24.7435 21.4594 24.9416 19.7892 26.081 19.7005Z" fill="#4801FF"/>
</g>
<defs>
<clipPath id="clip0">
<rect width="30" height="30" fill="white"/>
</clipPath>
</defs>
</svg>
