<?xml version="1.0" standalone="no"?>
<!DOCTYPE svg PUBLIC "-//W3C//DTD SVG 20010904//EN"
 "http://www.w3.org/TR/2001/REC-SVG-20010904/DTD/svg10.dtd">
<svg version="1.0" xmlns="http://www.w3.org/2000/svg"
 width="700.000000pt" height="700.000000pt" viewBox="0 0 700.000000 700.000000"
 preserveAspectRatio="xMidYMid meet">
<metadata>
Created by potrace 1.11, written by Peter Selinger 2001-2013
</metadata>
<g transform="translate(0.000000,700.000000) scale(0.100000,-0.100000)"
fill="#000000" stroke="none">
<path d="M0 3500 l0 -3500 2220 0 2220 0 0 1595 0 1595 198 0 197 -1 264 -559
264 -560 389 0 c352 0 388 2 388 16 0 12 -559 1168 -627 1296 -1 3 23 21 54
38 145 81 262 191 341 324 117 193 157 548 93 826 -64 284 -308 522 -626 615
-177 51 -239 57 -597 62 l-338 5 0 874 0 874 -2220 0 -2220 0 0 -3500z m2804
147 c319 -853 582 -1558 584 -1564 3 -10 -82 -13 -405 -13 l-409 0 -53 167
c-29 93 -71 225 -93 296 l-40 127 -521 -2 -520 -3 -91 -290 -91 -290 -409 -3
c-325 -2 -407 0 -403 10 2 7 259 699 570 1538 311 839 570 1537 576 1553 l11
27 357 0 358 0 579 -1553z m2259 1003 c210 -34 327 -188 327 -430 0 -175 -63
-310 -176 -376 -83 -49 -124 -54 -461 -54 l-313 0 0 435 0 435 283 0 c155 0
308 -4 340 -10z"/>
<path d="M1702 3790 c-89 -285 -165 -526 -168 -535 -5 -13 31 -15 331 -15
l337 0 -7 28 c-11 45 -317 1016 -324 1030 -4 6 -80 -222 -169 -508z"/>
</g>
</svg>
