<svg version="1.0" xmlns="http://www.w3.org/2000/svg" width="933.333" height="933.333" viewBox="0 0 700 700"><path d="M0 350v350h350V0H0v350zm229.6-161c18.4 49.8 33.8 91.5 34.4 92.7l1 2.3h-48.6l-1.8-5.8c-1-3.1-3.4-10.8-5.3-17l-3.6-11.2-31 .2-31 .3-5.1 16.5-5.2 16.5-24 .3-24.1.2 34.1-93 34.1-93 21.3.2 21.4.3 33.4 90.5zM191 405c29.2 3.1 48.6 17.2 54.5 39.7 3.4 12.8 1.4 33.5-4.2 44.7-3.4 6.7-12.4 16-20 20.5l-6.2 3.7 19.4 37.5c10.7 20.5 19.5 38 19.5 38.6 0 1-5.4 1.3-24 1.3h-24l-16.5-33-16.5-33h-25v66l-22.2-.2-22.3-.3-.3-93.3-.2-93.2h39.2c21.6 0 43.6.5 48.8 1z"/><path d="M164.7 182.7c-5.4 17.3-9.6 31.7-9.4 31.9.2.3 9.2.3 19.9.2l19.6-.3-9.7-31.2c-5.4-17.2-9.9-31.5-10.2-31.7-.3-.3-4.9 13.7-10.2 31.1zM148 464.4V490h16.8c20.1 0 25.4-1.2 31.1-6.9 4.3-4.3 6.6-10.9 6.5-19.1-.1-10.5-4.2-18.3-11.7-22.3-3.9-2-5.8-2.2-23.4-2.5l-19.3-.4v25.6z"/></svg>