<?xml version="1.0" standalone="no"?>
<!DOCTYPE svg PUBLIC "-//W3C//DTD SVG 20010904//EN"
 "http://www.w3.org/TR/2001/REC-SVG-20010904/DTD/svg10.dtd">
<svg version="1.0" xmlns="http://www.w3.org/2000/svg"
 width="700.000000pt" height="700.000000pt" viewBox="0 0 700.000000 700.000000"
 preserveAspectRatio="xMidYMid meet">
<metadata>
Created by potrace 1.11, written by Peter Selinger 2001-2013
</metadata>
<g transform="translate(0.000000,700.000000) scale(0.100000,-0.100000)"
fill="#000000" stroke="none">
<path d="M0 3500 l0 -3500 1750 0 1750 0 0 3500 0 3500 -1750 0 -1750 0 0
-3500z m2296 1610 c184 -498 338 -915 344 -927 l10 -23 -243 0 -243 0 -18 58
c-10 31 -34 108 -53 170 l-36 112 -310 -2 -310 -3 -51 -165 -52 -165 -240 -3
-241 -2 341 930 341 930 213 -2 214 -3 334 -905z m-386 -2160 c292 -31 486
-172 545 -397 34 -128 14 -335 -42 -447 -34 -67 -124 -160 -200 -205 l-62 -37
194 -375 c107 -205 195 -380 195 -386 0 -10 -54 -13 -240 -13 l-240 0 -165
330 -165 330 -125 0 -125 0 0 -330 0 -330 -222 2 -223 3 -3 933 -2 932 392 0
c216 0 436 -5 488 -10z"/>
<path d="M1647 5173 c-54 -173 -96 -317 -94 -319 2 -3 92 -3 199 -2 l196 3
-97 312 c-54 172 -99 315 -102 317 -3 3 -49 -137 -102 -311z"/>
<path d="M1480 2356 l0 -256 168 0 c201 0 254 12 311 69 43 43 66 109 65 191
-1 105 -42 183 -117 223 -39 20 -58 22 -234 25 l-193 4 0 -256z"/>
</g>
</svg>
