<svg xmlns="http://www.w3.org/2000/svg" viewBox="0 0 31.015 26.084">
  <defs>
    <style>
      .cls-1 {
        fill: #fff;
      }
    </style>
  </defs>
  <path id="Path_2" data-name="Path 2" class="cls-1" d="M745.134-323.457a.48.48,0,0,0-.484-.115L714.6-313.839a.485.485,0,0,0-.327.388.482.482,0,0,0,.2.465l7.071,4.851,1.486,9.583a.071.071,0,0,0,.008.031.014.014,0,0,0,0,.012l.011.035a.03.03,0,0,0,.008.015l.011.023s0,.012.008.015l.012.023a.03.03,0,0,1,.008.015c0,.008.011.015.015.023s0,.008.008.012.019.023.027.035l.008.008.023.023,0,0s0,0,.008,0,.015.011.023.019.008.008.012.008.015.012.023.015.008,0,.011.008a.118.118,0,0,0,.031.015c.008,0,.011.008.019.008l.023.011.019.008c.008,0,.016,0,.019.008s.011,0,.019,0,.015,0,.023,0,.011,0,.019,0a.014.014,0,0,1,.012,0h.119a.14.14,0,0,0,.042-.008s.008,0,.011,0l.031-.008c.008,0,.012,0,.019,0s.015,0,.023-.008l.019-.008a.062.062,0,0,0,.027-.015.08.08,0,0,0,.019-.012.174.174,0,0,1,.027-.015l.015-.012c.008-.008.016-.012.023-.019s.008-.008.011-.008l.035-.035h0l4.636-5.062,8.423,5.781a.5.5,0,0,0,.273.084.438.438,0,0,0,.158-.027.472.472,0,0,0,.3-.315l7.605-25.131A.486.486,0,0,0,745.134-323.457Zm-3.526,1.878L722-308.992l-6.172-4.237Zm-15.437,15.921s0,.008-.008.008l-.015.015c-.008.008-.012.015-.019.023s-.008.012-.011.015-.011.019-.019.027a.02.02,0,0,0-.008.015.138.138,0,0,0-.015.035s0,0,0,.008l0,.008h0l-2.332,5.2-1.225-7.874,18.36-11.78Zm-1.01,4.513,1.548-3.449.991.68Zm11.761,2.393-9.664-6.629L743.8-321.475Z" transform="translate(-714.267 323.595)"/>
</svg>
