<svg width="33" height="33" viewBox="0 0 33 33" fill="none" xmlns="http://www.w3.org/2000/svg">
<g clip-path="url(#clip0)">
<path d="M32.7545 1.32239C32.469 1.00271 32.0184 0.916983 31.6452 1.08005L0.579086 14.6796C0.234909 14.8304 0.0086808 15.1675 0.000301959 15.5439C-0.00807688 15.9196 0.202683 16.2664 0.540415 16.4327L7.95827 20.0807L9.80677 31.1704C9.86671 31.5913 10.1974 31.9297 10.6279 31.9909C10.9373 32.0354 11.2447 31.9264 11.4574 31.7073L17.3136 25.8511L25.6705 31.8207C25.9386 32.0115 26.2841 32.0534 26.5883 31.9329C26.8932 31.8124 27.1162 31.5449 27.1806 31.2233L32.9813 2.15512C33.0387 1.86702 32.9646 1.55829 32.7545 1.32239ZM8.72396 18.3024L3.2616 15.6161L24.8416 6.16923L8.72396 18.3024ZM11.7494 21.1764L10.8503 25.672L9.88024 19.8519L21.7376 10.9258L12.013 20.6833C11.8763 20.82 11.7855 20.9979 11.7494 21.1764ZM12.3378 28.0922L13.3523 23.0217L15.7184 24.7116L12.3378 28.0922ZM25.577 29.3773L14.1863 21.2415L30.4587 4.91498L25.577 29.3773Z" fill="black"/>
</g>
<defs>
<clipPath id="clip0">
<rect width="33" height="33" fill="white"/>
</clipPath>
</defs>
</svg>
