<svg xmlns="http://www.w3.org/2000/svg" viewBox="0 0 25.171 25.184"><defs><style>.a{fill:#fff;}</style></defs><path class="a" d="M24.777,43.944h0a5.15,5.15,0,0,0,3.65-1.509c3.467-3.466.9-6.158-.332-7.452a6.158,6.158,0,0,0-3.43-1.937,3.758,3.758,0,0,0-2.2.811,2.37,2.37,0,0,1-1.313.552c-.889,0-2.187-.866-3.968-2.649-3.367-3.367-2.806-4.212-2.1-5.281a3.758,3.758,0,0,0,.81-2.2,6.141,6.141,0,0,0-1.937-3.429c-1.137-1.085-2.4-2.089-3.942-2.089a5.015,5.015,0,0,0-3.511,1.757A5.142,5.142,0,0,0,5,24.167C5,30.45,18.493,43.943,24.777,43.944ZM7.252,21.26a4.046,4.046,0,0,1,2.767-1.448c1.228,0,2.3.928,3.216,1.8a5.349,5.349,0,0,1,1.611,2.668A2.782,2.782,0,0,1,14.21,25.9c-1.022,1.541-1.461,2.917,2.229,6.607,2.044,2.044,3.5,2.955,4.712,2.955a3.335,3.335,0,0,0,1.895-.726,2.781,2.781,0,0,1,1.617-.635,5.363,5.363,0,0,1,2.67,1.611c1.629,1.708,2.881,3.45.35,5.981a4.1,4.1,0,0,1-2.907,1.2c-2.6,0-7.116-2.844-11.507-7.245s-7.217-8.9-7.218-11.48A4.1,4.1,0,0,1,7.252,21.26Z" transform="translate(-5 -18.76)"/></svg>