<svg width="372" height="69" viewBox="0 0 372 69" fill="none" xmlns="http://www.w3.org/2000/svg">
<path d="M111.687 36.3833C109.495 35.1169 107.145 34.3011 104.636 33.9358V54.7941H98.7187V33.9358C96.2103 34.3011 93.8481 35.1169 91.632 36.3833L89.6229 31.9632C91.3763 30.916 93.2758 30.1246 95.3215 29.5888C97.3671 29.053 99.4736 28.7852 101.641 28.7852C103.833 28.7852 105.952 29.053 107.997 29.5888C110.067 30.1246 111.967 30.916 113.696 31.9632L111.687 36.3833Z" fill="black"/>
<path d="M124.583 50.5202C125.606 50.5202 126.507 50.374 127.286 50.0818C128.09 49.7652 128.833 49.2782 129.515 48.6206L132.547 51.9083C130.696 54.027 127.993 55.0863 124.437 55.0863C122.221 55.0863 120.261 54.6602 118.556 53.8078C116.851 52.9311 115.536 51.7256 114.611 50.1914C113.685 48.6572 113.223 46.9159 113.223 44.9677C113.223 43.0438 113.673 41.3147 114.574 39.7805C115.5 38.2219 116.754 37.0165 118.337 36.1641C119.944 35.2874 121.746 34.849 123.743 34.849C125.618 34.849 127.323 35.2509 128.857 36.0545C130.391 36.8338 131.609 37.9784 132.51 39.4883C133.436 40.9738 133.898 42.7394 133.898 44.785L119.36 47.5978C119.774 48.5719 120.419 49.3025 121.296 49.7896C122.197 50.2766 123.293 50.5202 124.583 50.5202ZM123.743 39.1595C122.306 39.1595 121.137 39.6222 120.236 40.5476C119.335 41.473 118.86 42.7516 118.812 44.3832L128.382 42.5202C128.114 41.4974 127.566 40.6816 126.738 40.0727C125.91 39.4639 124.912 39.1595 123.743 39.1595Z" fill="black"/>
<path d="M157.382 35.1413V54.7941H151.683V39.817H143.5V54.7941H137.838V35.1413H157.382Z" fill="black"/>
<path d="M181.694 35.1413V54.7941H175.996V39.817H169.786L169.603 43.2873C169.506 45.8687 169.262 48.0118 168.873 49.7165C168.483 51.4212 167.85 52.7606 166.973 53.7348C166.096 54.7089 164.879 55.1959 163.32 55.1959C162.492 55.1959 161.506 55.0498 160.361 54.7576L160.653 50.0818C161.043 50.1305 161.323 50.1549 161.494 50.1549C162.346 50.1549 162.979 49.8505 163.393 49.2416C163.832 48.6085 164.124 47.817 164.27 46.8672C164.416 45.8931 164.526 44.6146 164.599 43.0316L164.891 35.1413H181.694Z" fill="black"/>
<path d="M196.38 55.0863C194.31 55.0863 192.447 54.6602 190.791 53.8078C189.159 52.9311 187.881 51.7256 186.955 50.1914C186.03 48.6572 185.567 46.9159 185.567 44.9677C185.567 43.0195 186.03 41.2782 186.955 39.744C187.881 38.2097 189.159 37.0165 190.791 36.1641C192.447 35.2874 194.31 34.849 196.38 34.849C198.45 34.849 200.301 35.2874 201.932 36.1641C203.564 37.0165 204.842 38.2097 205.768 39.744C206.693 41.2782 207.156 43.0195 207.156 44.9677C207.156 46.9159 206.693 48.6572 205.768 50.1914C204.842 51.7256 203.564 52.9311 201.932 53.8078C200.301 54.6602 198.45 55.0863 196.38 55.0863ZM196.38 50.4106C197.841 50.4106 199.034 49.9235 199.96 48.9494C200.909 47.9509 201.384 46.6237 201.384 44.9677C201.384 43.3117 200.909 41.9966 199.96 41.0225C199.034 40.024 197.841 39.5248 196.38 39.5248C194.919 39.5248 193.713 40.024 192.763 41.0225C191.814 41.9966 191.339 43.3117 191.339 44.9677C191.339 46.6237 191.814 47.9509 192.763 48.9494C193.713 49.9235 194.919 50.4106 196.38 50.4106Z" fill="black"/>
<path d="M230.253 54.7941V43.0316L224.372 52.8946H221.961L216.226 42.9951V54.7941H211.075V35.1413H217.03L223.313 46.5019L229.998 35.1413H235.331L235.404 54.7941H230.253Z" fill="black"/>
<path d="M260.698 35.1413V54.7941H255.255V52.5293C253.843 54.234 251.797 55.0863 249.118 55.0863C247.267 55.0863 245.587 54.6723 244.077 53.8443C242.592 53.0163 241.423 51.8352 240.57 50.301C239.718 48.7667 239.292 46.989 239.292 44.9677C239.292 42.9464 239.718 41.1686 240.57 39.6344C241.423 38.1002 242.592 36.919 244.077 36.091C245.587 35.263 247.267 34.849 249.118 34.849C251.627 34.849 253.587 35.6405 255 37.2235V35.1413H260.698ZM250.105 50.4106C251.541 50.4106 252.735 49.9235 253.684 48.9494C254.634 47.9509 255.109 46.6237 255.109 44.9677C255.109 43.3117 254.634 41.9966 253.684 41.0225C252.735 40.024 251.541 39.5248 250.105 39.5248C248.643 39.5248 247.438 40.024 246.488 41.0225C245.538 41.9966 245.064 43.3117 245.064 44.9677C245.064 46.6237 245.538 47.9509 246.488 48.9494C247.438 49.9235 248.643 50.4106 250.105 50.4106Z" fill="black"/>
<path d="M291.216 34.849C293.676 34.849 295.624 35.5796 297.061 37.0408C298.522 38.4776 299.252 40.645 299.252 43.543V54.7941H293.554V44.4197C293.554 42.8612 293.225 41.7044 292.567 40.9495C291.934 40.1702 291.021 39.7805 289.828 39.7805C288.488 39.7805 287.429 40.2189 286.65 41.0956C285.87 41.9479 285.481 43.2265 285.481 44.9312V54.7941H279.782V44.4197C279.782 41.3269 278.54 39.7805 276.056 39.7805C274.741 39.7805 273.694 40.2189 272.915 41.0956C272.135 41.9479 271.746 43.2265 271.746 44.9312V54.7941H266.047V35.1413H271.49V37.4061C272.221 36.5781 273.109 35.9449 274.157 35.5066C275.228 35.0682 276.397 34.849 277.663 34.849C279.052 34.849 280.306 35.1291 281.426 35.6892C282.546 36.225 283.447 37.0165 284.129 38.0636C284.933 37.0408 285.943 36.2493 287.161 35.6892C288.403 35.1291 289.755 34.849 291.216 34.849Z" fill="black"/>
<path d="M323.615 35.1413V54.7941H318.173V52.4928C317.442 53.3451 316.541 53.9905 315.469 54.4288C314.422 54.8672 313.302 55.0863 312.109 55.0863C309.527 55.0863 307.469 54.3436 305.935 52.858C304.425 51.3725 303.67 49.1686 303.67 46.2462V35.1413H309.369V45.406C309.369 48.5719 310.696 50.1549 313.351 50.1549C314.739 50.1549 315.847 49.7165 316.675 48.8398C317.503 47.9387 317.917 46.6115 317.917 44.8581V35.1413H323.615Z" fill="black"/>
<path d="M337.704 47.3421H334.746V54.7941H329.047V35.1413H334.746V42.7759H337.814L343.147 35.1413H349.211L342.344 44.5659L349.686 54.7941H342.965L337.704 47.3421Z" fill="black"/>
<path d="M371.713 35.1413V54.7941H366.27V52.5293C364.858 54.234 362.812 55.0863 360.133 55.0863C358.283 55.0863 356.602 54.6723 355.092 53.8443C353.607 53.0163 352.438 51.8352 351.586 50.301C350.733 48.7667 350.307 46.989 350.307 44.9677C350.307 42.9464 350.733 41.1686 351.586 39.6344C352.438 38.1002 353.607 36.919 355.092 36.091C356.602 35.263 358.283 34.849 360.133 34.849C362.642 34.849 364.602 35.6405 366.015 37.2235V35.1413H371.713ZM361.12 50.4106C362.557 50.4106 363.75 49.9235 364.7 48.9494C365.649 47.9509 366.124 46.6237 366.124 44.9677C366.124 43.3117 365.649 41.9966 364.7 41.0225C363.75 40.024 362.557 39.5248 361.12 39.5248C359.659 39.5248 358.453 40.024 357.503 41.0225C356.554 41.9966 356.079 43.3117 356.079 44.9677C356.079 46.6237 356.554 47.9509 357.503 48.9494C358.453 49.9235 359.659 50.4106 361.12 50.4106Z" fill="black"/>
<path d="M51.429 0.411204C53.9095 -0.967948 57.2689 1.33569 56.7435 4.14957C56.5617 6.83209 53.0052 8.29713 50.9541 6.5896C48.7869 5.16499 49.1456 1.53271 51.429 0.411204Z" fill="#E7EBFD"/>
<path d="M0.202393 28.2014C9.91203 20.5074 19.1518 12.2275 28.8564 4.52341C28.8008 8.24661 29.008 11.985 28.7503 15.693C22.1173 21.3662 15.3832 26.9384 8.65916 32.5055C5.83014 31.091 2.75357 30.1211 0.202393 28.2014Z" fill="#546DE5"/>
<path d="M35.9991 14.5008C39.0959 12.9701 42.9252 16.0466 42.0916 19.4061C41.7582 22.7151 37.1913 24.1346 34.8523 21.932C32.4022 19.977 33.0387 15.6122 35.9991 14.5008Z" fill="#E7EBFD"/>
<path d="M52.2817 14.4149C55.1713 13.546 58.3085 16.4154 57.4901 19.3758C56.9849 22.6039 52.3271 23.8518 50.2761 21.3107C48.1392 19.1434 49.3415 15.1222 52.2817 14.4149Z" fill="#E7EBFD"/>
<path d="M0.000237568 30.505C-0.00481427 29.7321 0.0709679 28.9591 0.202316 28.2014C2.75349 30.1211 5.83006 31.091 8.65909 32.5055C8.66414 41.6999 8.63888 50.8942 8.6793 60.0886C7.26984 61.4222 5.89574 62.7913 4.53679 64.1805C3.10207 65.6658 1.34908 66.8732 0.273041 68.6716L0.0558081 69C-0.0452287 56.1683 0.0608596 43.3367 0.000237568 30.505Z" fill="#9FABE2"/>
<path d="M36.8443 28.7217C40.3301 27.4335 44.2806 30.8788 43.4016 34.5111C42.9116 38.3454 37.597 40.0681 34.9246 37.2896C32.1107 34.8647 33.2322 29.6967 36.8443 28.7217Z" fill="#C2CCFC"/>
<path d="M49.2153 32.5055C51.9685 31.0153 54.8784 29.8129 57.7125 28.4843C57.7074 41.9676 57.6822 55.451 57.7276 68.9344L57.5255 68.6717C55.0501 65.5395 51.8321 63.1045 49.2405 60.0785C49.0132 59.351 49.089 58.573 49.0637 57.8254C49.0789 50.5709 49.0789 43.3215 49.0637 36.0721C49.0789 34.885 48.9425 33.6725 49.2153 32.5055Z" fill="#9FABE2"/>
<path d="M21.0815 32.8036C24.6431 31.3285 28.7755 34.9809 27.7651 38.7041C27.1235 42.488 21.8494 44.0338 19.2326 41.2553C16.5349 38.8304 17.6109 33.8796 21.0815 32.8036Z" fill="#788CF0"/>
<path d="M20.9855 45.3119C24.4056 43.8873 28.5027 47.1003 27.8358 50.7629C27.5378 54.572 22.4405 56.5876 19.5963 54.0567C16.5399 51.8187 17.4088 46.5042 20.9855 45.3119Z" fill="#788CF0"/>
<path d="M36.8638 45.2665C39.3392 44.3571 42.335 45.802 43.1988 48.2824C44.4113 51.2276 42.1076 55.1378 38.834 55.1479C36.0252 55.5116 33.2821 53.0311 33.3477 50.2122C33.2366 48.0147 34.7825 45.9131 36.8638 45.2665Z" fill="#788CF0"/>
<path d="M4.53676 64.1806C5.89571 62.7913 7.26981 61.4223 8.67927 60.0886C22.203 60.0886 35.7218 60.1139 49.2405 60.0785C51.8321 63.1045 55.0501 65.5395 57.5255 68.6717C38.4447 68.7626 19.3538 68.7626 0.27301 68.6717C1.34905 66.8732 3.10204 65.6658 4.53676 64.1806Z" fill="#546DE5"/>
</svg>
