<svg xmlns="http://www.w3.org/2000/svg" xmlns:xlink="http://www.w3.org/1999/xlink" width="24.656" height="17.812" viewBox="0 0 24.656 17.812">
  <metadata><?xpacket begin="﻿" id="W5M0MpCehiHzreSzNTczkc9d"?>
<x:xmpmeta xmlns:x="adobe:ns:meta/" x:xmptk="Adobe XMP Core 5.6-c142 79.160924, 2017/07/13-01:06:39        ">
   <rdf:RDF xmlns:rdf="http://www.w3.org/1999/02/22-rdf-syntax-ns#">
      <rdf:Description rdf:about=""/>
   </rdf:RDF>
</x:xmpmeta>
                                                                                                    
                                                                                                    
                                                                                                    
                                                                                                    
                                                                                                    
                                                                                                    
                                                                                                    
                                                                                                    
                                                                                                    
                                                                                                    
                                                                                                    
                                                                                                    
                                                                                                    
                                                                                                    
                                                                                                    
                                                                                                    
                                                                                                    
                                                                                                    
                                                                                                    
                                                                                                    
                           
<?xpacket end="w"?></metadata>
<defs>
    <style>
      .cls-1 {
        fill: #eee;
        fill-rule: evenodd;
        filter: url(#filter);
      }
    </style>
    <filter id="filter" x="446.25" y="360.938" width="24.656" height="17.812" filterUnits="userSpaceOnUse">
      <feFlood result="flood" flood-color="#221102"/>
      <feComposite result="composite" operator="in" in2="SourceGraphic"/>
      <feBlend result="blend" in2="SourceGraphic"/>
    </filter>
  </defs>
  <path id="значок_поиска" data-name="значок поиска" class="cls-1" d="M470.564,377.975a2.139,2.139,0,0,1-2.768.45l-8.18-5.062a1.721,1.721,0,0,1-.856-1.525,7.463,7.463,0,0,1-3.988,1.941,7.87,7.87,0,0,1-5.414-1.043,6.414,6.414,0,0,1-3-4.163,5.9,5.9,0,0,1,1.166-4.845,7.8,7.8,0,0,1,10.07-1.639,6.089,6.089,0,0,1,2.383,8.17,2.187,2.187,0,0,1,1.9.177l8.182,5.062A1.665,1.665,0,0,1,470.564,377.975ZM458.438,366.6a4.469,4.469,0,0,0-2.091-2.9,5.441,5.441,0,0,0-7.023,1.142,4.227,4.227,0,0,0,1.278,6.28,5.439,5.439,0,0,0,7.023-1.142A4.113,4.113,0,0,0,458.438,366.6Z" transform="translate(-446.25 -360.938)"/>
</svg>
