<svg xmlns="http://www.w3.org/2000/svg" xmlns:xlink="http://www.w3.org/1999/xlink" width="51" height="45" viewBox="0 0 51 45">
  <metadata><?xpacket begin="﻿" id="W5M0MpCehiHzreSzNTczkc9d"?>
<x:xmpmeta xmlns:x="adobe:ns:meta/" x:xmptk="Adobe XMP Core 5.6-c142 79.160924, 2017/07/13-01:06:39        ">
   <rdf:RDF xmlns:rdf="http://www.w3.org/1999/02/22-rdf-syntax-ns#">
      <rdf:Description rdf:about=""/>
   </rdf:RDF>
</x:xmpmeta>
                                                                                                    
                                                                                                    
                                                                                                    
                                                                                                    
                                                                                                    
                                                                                                    
                                                                                                    
                                                                                                    
                                                                                                    
                                                                                                    
                                                                                                    
                                                                                                    
                                                                                                    
                                                                                                    
                                                                                                    
                                                                                                    
                                                                                                    
                                                                                                    
                                                                                                    
                                                                                                    
                           
<?xpacket end="w"?></metadata>
<defs>
    <style>
      .cls-1 {
        fill: #eee;
        fill-rule: evenodd;
        filter: url(#filter);
      }
    </style>
    <filter id="filter" x="1117" y="62" width="51" height="45" filterUnits="userSpaceOnUse">
      <feFlood result="flood" flood-color="#fec004"/>
      <feComposite result="composite" operator="in" in2="SourceGraphic"/>
      <feBlend result="blend" in2="SourceGraphic"/>
    </filter>
  </defs>
  <path id="корзина" class="cls-1" d="M1156.84,81.687c-6.16,0-11.15-4.408-11.15-9.844S1150.68,62,1156.84,62,1168,66.408,1168,71.844,1163,81.687,1156.84,81.687Zm5.07-14.815-6.76,5.966-3.38-2.983-2.25,1.989,3.38,2.983,2.25,1.989,9.02-7.954ZM1156.84,84.5a15.472,15.472,0,0,0,8.46-2.489l-3.68,8.114h-22.31l-6.37-14.062h10.44C1145.36,80.962,1150.62,84.5,1156.84,84.5Zm4.78,8.437V95.75h-26.54l-11.15-22.5H1117V70.437h9.01l11.16,22.5h24.45Zm-20.71,5.625a4.253,4.253,0,1,1-4.79,4.219A4.527,4.527,0,0,1,1140.91,98.562Zm15.93,0a4.252,4.252,0,1,1-4.78,4.219A4.527,4.527,0,0,1,1156.84,98.562Z" transform="translate(-1117 -62)"/>
</svg>
